<svg xmlns="http://www.w3.org/2000/svg" width="44" height="31" viewBox="0 0 44 31">
  <path fill="#484A4D" fill-rule="evenodd" d="M455.353011,1541.24948 L464.394933,1540.22465 L471.414118,1539.19544 L480.775581,1538.01732 C480.775581,1538.01732 486.323963,1537.59833 488.709049,1537.4684 C491.094135,1537.33847 493.6474,1537.18957 493.6474,1537.18957 C493.6474,1537.18957 494.298712,1546.02912 494.194747,1547.68608 C494.089253,1549.34304 494.222267,1558.98407 494.222267,1558.98407 L494.228383,1563.01042 C494.228383,1563.01042 491.636895,1563.38268 490.068243,1563.56079 C487.375847,1563.8659 478.173391,1564.60752 476.430443,1565.1068 C474.927533,1565.53746 468.758417,1565.89805 467.411455,1566.27324 C466.088955,1566.64259 458.369533,1566.96522 457.837475,1567.24552 C457.305417,1567.52582 453.47552,1567.2864 452.837968,1567.62509 C452.198887,1567.96378 451.029278,1567.7521 451.029278,1567.7521 L451.021633,1562.7418 L451.009402,1553.38544 C451.009402,1553.38544 451.122541,1548.67296 451.015518,1547.42331 C450.906966,1546.17219 451.405388,1542.12541 451.351876,1541.91373 C451.299893,1541.70205 455.353011,1541.24948 455.353011,1541.24948" transform="translate(-451 -1537)"/>
</svg>
