<svg xmlns="http://www.w3.org/2000/svg" width="8" height="16" viewBox="0 0 8 16">
  <path fill="#FFF" fill-rule="evenodd" d="M1122.22912,738.726286 C1122.58026,738.842835 1122.97175,739.313516 1123.40059,740.171202 C1123.51864,740.366945 1123.67404,740.679238 1123.83093,741.069231 C1123.98633,741.460718 1124.14322,741.773012 1124.25977,741.968755 C1124.61241,742.476792 1124.88436,742.866785 1125.0801,743.138734 C1125.70618,743.921708 1126.09618,744.42825 1126.21273,744.703188 C1126.29192,744.819737 1126.44732,744.975137 1126.64306,745.211224 C1126.83731,745.444324 1126.99421,745.640067 1127.11225,745.796961 C1127.2288,745.95236 1127.3065,746.06891 1127.3065,746.148104 C1127.3065,746.304998 1127.26765,746.497753 1127.14961,746.693496 C1127.03306,746.88924 1126.87616,747.125327 1126.72076,747.358427 C1126.56387,747.59302 1126.48617,747.749914 1126.44732,747.826119 C1126.33077,748.099562 1126.17388,748.3745 1125.97813,748.646449 C1125.78388,748.919892 1125.58814,749.154486 1125.3924,749.390573 C1125.19815,749.623672 1125.0801,749.780566 1125.04125,749.89861 C1124.80666,750.327453 1124.49437,750.952039 1124.02667,751.616969 C1123.24519,752.786948 1122.69831,753.294985 1122.50256,753.294985 C1122.30682,753.294985 1121.99453,753.215791 1121.52684,753.061885 C1121.40879,753.020047 1121.33109,752.982691 1121.29224,752.945336 L1121.21305,752.866142 C1121.21305,752.866142 1121.21305,752.825798 1121.25339,752.786948 C1121.25339,752.670398 1121.29224,752.553849 1121.40879,752.437299 L1122.58026,750.756295 C1122.9329,750.248259 1123.51864,749.390573 1124.22092,748.178756 C1124.25977,748.062207 1124.33897,747.905313 1124.45552,747.749914 L1124.80666,747.318082 C1124.9247,747.201533 1125.04125,747.084983 1125.12045,746.968434 C1125.19815,746.85039 1125.27585,746.73384 1125.3147,746.617291 C1125.35355,746.497753 1125.3924,746.421547 1125.3924,746.381203 C1125.3924,746.343847 1125.35355,746.264653 1125.3147,746.18546 C1125.27585,746.109254 1125.237,746.031554 1125.1578,745.95236 C1125.0801,745.873166 1125.0024,745.756617 1124.9247,745.640067 C1124.84551,745.523518 1124.76781,745.406968 1124.72896,745.327774 C1124.06552,744.42825 1123.40059,743.454015 1122.77601,742.397598 C1122.30682,741.539912 1121.99453,740.952682 1121.87798,740.603033 C1121.83913,740.483495 1121.79878,740.407289 1121.72108,740.328095 L1121.52684,740.054652 C1121.44914,739.975458 1121.36994,739.899253 1121.33109,739.858909 C1121.29224,739.820059 1121.25339,739.742359 1121.1742,739.625809 C1121.0965,739.507766 1121.0188,739.391216 1120.97995,739.313516 C1120.9411,739.234322 1120.90075,739.117773 1120.90075,739.001223 C1120.9411,738.726286 1121.05765,738.609736 1121.25339,738.647092 L1121.79878,738.647092 L1122.26797,738.647092 L1122.22912,738.726286 Z" transform="translate(-1120 -738)"/>
</svg>
