<svg xmlns="http://www.w3.org/2000/svg" width="28" height="28" style="background:#fff" viewBox="0 0 28 28">
  <g fill="none" fill-rule="evenodd" transform="translate(2.5)">
    <path fill="#FBFBFB" d="M11.6990597,0.615049478 C17.9137128,0.83103721 21.1974522,4.3391634 22.3319256,8.35161329 C23.8056098,13.5637973 21.2266624,18.6674028 18.279294,21.2463501 C14.6953106,24.3823356 13.1909302,25.9662929 12.7529782,26.4042449 C12.021327,27.1358961 11.8840462,27.384124 11.6950285,27.3201002 C11.5060109,27.384124 11.3687301,27.1358961 10.6370789,26.4042449 C10.1991269,25.9662929 8.69474652,24.3823356 5.11076309,21.2463501 C2.16339467,18.6674028 -0.415552695,13.5637973 1.05813152,8.35161329 C2.1926049,4.3391634 5.47634433,0.83103721 11.6909974,0.615049478 C11.6923413,0.614817251 11.693685,0.614863475 11.6950285,0.614909853 C11.6963721,0.614863475 11.6977158,0.614817251 11.6990597,0.61477118 Z M9.73545792,12.8384194 C11.2881288,13.5336356 13.0207851,12.9602895 13.8761415,12.1174461 C15.1419435,10.8701615 15.1247818,8.93917913 14.0340301,7.54308544 C12.9508662,6.15670369 11.0387765,6.05515789 9.68237877,6.72581068 C8.32598106,7.39646348 7.87778682,8.42229263 7.78188109,9.15911295 C7.60633425,10.5083561 8.26740974,12.1810934 9.73545792,12.8384194 Z"/>
  </g>
</svg>
