<svg xmlns="http://www.w3.org/2000/svg" xmlns:xlink="http://www.w3.org/1999/xlink" width="245" height="73" viewBox="0 0 245 73">
  <defs>
    <rect id="logo-nav-a" width="245" height="85"/>
  </defs>
  <g fill="none" fill-rule="evenodd" transform="translate(-.16)">
    <mask id="logo-nav-b" fill="#fff">
      <use xlink:href="#logo-nav-a"/>
    </mask>
    <g mask="url(#logo-nav-b)">
      <g transform="translate(0 -13.496)">
        <path fill="#F8F3EE" d="M212.970091,1.59683896 C209.668229,-1.16146847 195.989969,1.75672637 195.910471,1.59683896 C191.056162,2.88592788 180.218947,7.11457106 176.195263,8.19870024 C163.644176,11.5751424 139.027432,17.9073198 134.162335,19.4013684 C129.146214,20.9169918 91.7572419,31.5155681 91.7572419,31.5155681 C91.7572419,31.5155681 71.9948075,37.3137715 66.3422334,39.2878574 C65.7597163,39.6330528 65.2041675,41.5585957 65.0046014,43.8724833 C64.8023406,45.5312884 64.7068557,47.201374 64.7187365,48.8724224 C64.7187365,50.7548158 65.2203485,50.7979653 65.3390094,50.835721 C69.7294629,52.2920139 83.1381452,54.7191688 83.1381452,54.7191688 C83.1381452,54.7191688 88.6504836,56.4289646 109.534803,61.4504783 C111.309323,61.8765789 139.847271,66.9574231 167.915968,72.3133449 C175.790738,73.8181809 239.035949,85.5126386 244.888089,86.3378712 C243.356285,80.4857311 236.483983,64.1979081 234.432193,58.2720453 C228.37878,40.788922 214.621022,6.54287591 212.970091,1.59683896 Z"/>
        <path fill="#F8F3EE" fill-rule="nonzero" d="M52.4750886,37.923257 L51.881784,37.923257 C49.6719601,37.9055945 47.4646342,37.7705623 45.2691354,37.5187312 L44.907759,37.1088117 C44.5853549,36.3421266 44.3711515,35.5343257 44.271305,34.7086252 L44.08792,34.3472488 C43.8411815,34.0521027 43.5686208,33.779542 43.2734747,33.5328035 L42.2756444,32.923318 L39.8754579,32.923318 C38.8344781,33.106703 37.9283403,34.3742172 37.4752714,34.6924442 C36.6554324,36.5478693 35.8895302,37.7290846 35.8895302,39.7247453 L35.8895302,43.1227622 C35.8895302,43.4841385 36.294056,45.884325 36.294056,46.520779 C36.294056,49.6491119 38.451527,51.0946175 38.6996362,51.0946175 C39.1958545,51.5962295 40.1451417,51.687922 40.8571072,51.687922 L41.261633,51.687922 C42.8797362,51.687922 45.4794888,49.6005688 45.4794888,48.8778161 C45.9789961,48.2698606 46.2516527,47.5071847 46.2507847,46.7203451 L47.6531409,46.7203451 C47.8796753,46.7203451 49.875336,47.3136496 50.0533273,47.3136496 L50.2798618,47.3136496 C51.0511577,47.3136496 51.6390685,47.1302645 52.2755225,47.1302645 L52.4589075,47.1302645 L52.6368989,47.3136496 L52.6368989,47.7181754 C52.685442,48.3546293 51.6390685,49.2176177 51.6390685,49.9403705 C51.3630221,50.3183999 51.1073574,50.7108992 50.8731663,51.1161922 L47.8958563,54.1042896 C46.4449571,55.5551888 43.8182361,55.9165652 43.2734747,56.0999503 L42.6855639,56.0999503 L41.8711186,56.3264847 L39.104162,56.3264847 C38.6996362,56.0999503 36.294056,55.1021199 35.8679555,54.9187349 L34.8916998,54.498028 C34.6154578,54.400935 34.355436,54.2627416 34.120404,54.0881085 L32.9014328,53.1064592 C32.9014328,53.1064592 32.4915134,52.5185484 32.313522,52.2920139 L31.9036025,51.7041031 C31.9036025,51.520718 30.9057722,50.7062727 30.9057722,50.5228877 L30.7439618,50.1183619 C30.7439618,48.9856896 29.6112896,47.8044742 28.9316862,46.8821554 L28.9316862,39.7409263 C29.1554791,38.923703 29.4274362,38.1204389 29.7461315,37.3353462 C29.7461315,37.1088117 30.5174274,35.93299 30.5174274,35.7172429 L30.9219532,34.7194126 C32.8744645,31.8661572 33.5540678,30.7334849 34.1581597,30.7334849 C34.5015853,30.5545002 34.8347171,30.3564218 35.15599,30.1401804 L35.5173664,29.962189 C38.3274724,28.9643587 38.100938,28.6029823 39.9132136,28.3440858 L40.2799837,28.2739679 L40.8193514,28.122945 L41.6553715,27.9934967 L41.6931272,27.9934967 L42.281038,28.1768818 L43.6887879,28.1768818 C44.3687163,28.3118871 45.0349025,28.5086738 45.6790549,28.7647926 L46.4935002,29.1477437 L47.2594024,29.3257351 C47.4859368,29.5522695 48.6671522,29.962189 48.8775056,30.1401804 L49.0608907,30.5500999 C49.0608907,30.7334849 50.0533273,31.3213957 50.0533273,31.5479302 L51.0673387,32.923318 C51.1590312,33.2415449 51.6552496,33.6514644 51.6552496,34.3310678 C51.881784,34.9189786 52.4750886,37.0926307 52.6530799,37.7290846 L52.4750886,37.923257 Z"/>
        <path fill="#373538" fill-rule="nonzero" d="M20.9975866 61.0675272C22.2438579 61.1353099 23.3983495 61.7440777 24.1582816 62.7341736 24.9619395 63.7320039 25.2370171 64.6543228 25.0266637 65.5280986 24.9673332 65.7600267 24.5951695 66.0243169 23.8724167 66.3587249 23.4040921 66.6241242 22.8828122 66.7825344 22.3460059 66.8225812 22.1841956 66.8225812 22.0385663 66.5960467 21.9037244 66.2184893 21.7524761 65.8139265 21.5513577 65.4298083 21.3050262 65.0750296 21.0546951 64.6887199 20.6370093 64.4429048 20.1777476 64.4116073 19.7421847 64.3758692 19.3063905 64.4777432 18.9318081 64.7028659 18.5445184 64.9236335 18.2654661 65.2944022 18.1605122 65.7276646 17.8744784 66.664026 18.1710555 67.6808617 18.915627 68.3166298 19.4549948 68.7912734 19.8217649 69.1904056 20.1130235 69.4816642 20.5296739 69.9224521 20.9068776 70.3989199 21.2403021 70.905595 21.6824156 71.5277821 21.9959733 72.2319117 22.1626209 72.9767672 22.3095453 73.7007233 22.2836746 74.4491242 22.0871094 75.1612066 21.8174256 76.1967927 21.0623107 77.162261 19.8163712 78.0791861 18.6995137 78.9523335 17.2901534 79.3635578 15.8789866 79.2280394 14.1476161 79.0770165 12.912464 78.5700108 12.2004985 77.7124161 11.4885331 76.8548213 11.3536912 75.6142755 11.7528233 74.0932584 11.8016755 73.8524504 11.8969376 73.6234549 12.0332945 73.4190488 12.1765111 73.2816695 12.3789302 73.2249922 12.5726623 73.2680258 14.3363948 73.4190488 15.2209579 73.7318821 15.2101706 74.1633763 15.2101706 74.2281004 15.2101706 74.4276665 15.2101706 74.702744 15.1886753 74.9032854 15.2032894 75.1060559 15.25332 75.3014422 15.3420174 75.4488957 15.4737913 75.5656098 15.6308774 75.6358502 15.9234925 75.7817552 16.2428866 75.8661927 16.5693773 75.8839594 16.9971301 75.9137716 17.4247533 75.8241388 17.8045295 75.6250629 18.1765617 75.4397954 18.4486308 75.1006947 18.548857 74.6973503 18.6621242 74.2712498 18.4301961 73.6186148 17.8261042 72.7394454 17.3185337 71.9877567 16.72679 71.2964842 16.0623716 70.6790606 15.3448525 70.0729118 14.8230684 69.2677125 14.5629293 68.3651729 14.3434289 67.3472631 14.3917479 66.2898203 14.7031649 65.2961704 15.0720538 63.9348533 15.9560205 62.7704157 17.1680755 62.0491766 18.2791713 61.2805365 19.6252725 60.9273043 20.9706182 61.0513462L20.9975866 61.0675272zM35.641421 74.1364079C35.604659 74.9300659 35.5200039 75.7207798 35.3879182 76.5042323 35.2153205 77.6854477 35.0696912 78.6131602 34.9132746 79.2873699L33.5702489 84.5893549C33.5217058 84.805102 33.1441483 84.9237629 32.4429703 85.0424238 31.9101676 85.145476 31.3668306 85.1835096 30.824867 85.155691 30.588371 85.1537636 30.3590622 85.0741688 30.172232 84.9291566 30.0604167 84.7474254 30.0404439 84.5237304 30.1182952 84.3250647L31.493683 78.8990251C31.7853444 77.3915106 31.9656209 75.8645684 32.0330508 74.3305803 32.0330508 74.0824711 32.1031686 73.7426694 32.130137 73.3327499L32.2272232 72.3403133C32.2517681 72.0567764 32.2517681 71.771649 32.2272232 71.4881122 32.2213428 71.2347666 32.1701965 70.9845149 32.0762002 70.7491784 31.9786592 70.5596136 31.8405421 70.3938732 31.6716744 70.2637474 31.457484 70.1072816 31.2028981 70.0155558 30.9381342 69.9994572 30.7462413 69.9802076 30.5529037 69.9802076 30.3610107 69.9994572 30.1703475 70.0107653 29.9852699 70.0681393 29.821643 70.1666612 29.6925281 70.2395285 29.5682184 70.3206 29.4494792 70.4093767L29.0287724 70.7114226C28.8993241 71.4233881 28.7968443 72.0112989 28.6943644 72.4697615 28.4354679 73.6078275 27.9554306 75.2906549 27.2272841 77.51285 26.7316875 79.0950606 26.3300569 80.7051849 26.024494 82.3347977 25.9833329 82.638583 25.7930785 82.9017008 25.5174883 83.0359758 25.1413399 83.1731684 24.7352231 83.2067009 24.3416666 83.133062 23.0363967 82.99822 22.4269111 82.7123551 22.51321 82.345585 22.8285991 80.6748425 23.2391876 79.0234842 23.7429684 77.3995828 24.5628074 74.7782555 25.0590257 73.0037356 25.2639855 72.1137788 25.5822125 70.7006353 25.9867383 68.6618252 26.4613819 66.0027422 26.9360255 63.3436592 27.5401174 61.0998893 27.6533846 60.5767026 27.6533846 60.4850101 27.7990139 60.3717428 28.0201547 60.2369009 28.3028553 60.087673 28.6065586 59.9821952 28.9208988 59.9240676 29.2728318 59.8333263 29.6381034 59.8059309 29.9996343 59.8431624 30.7439618 59.9240676 31.0783698 60.1128463 31.008252 60.452648 30.7493555 61.590714 30.0751458 64.3037338 29.5951085 67.2756501 30.3046357 66.9172018 31.1019415 66.7693446 31.8928152 66.8495495 32.559888 66.8875232 33.2069218 67.0914593 33.7752086 67.4428541 34.2241626 67.7308722 34.6185917 68.0960844 34.9402429 68.5215896 35.2382236 68.9652705 35.4386117 69.4671599 35.5281538 69.9940635 35.6323226 70.4794181 35.70261 70.9714298 35.7385072 71.4665375 35.7385072 71.8440949 35.7385072 72.3457069 35.7385072 72.9444051 35.7385072 73.5431033 35.7385072 73.8882987 35.7385072 73.9799912L35.641421 74.1364079zM42.8581615 67.2810437C44.3078729 67.197576 45.7188182 67.767495 46.7038536 68.8344229 47.5992041 69.7837101 48.036092 70.9433508 48.3219569 72.6099971 48.457669 73.4749743 48.5494792 74.3462706 48.5970344 75.220537 48.5970344 75.8677783 48.5970344 76.4233271 48.5970344 77.3780081 48.5970344 78.332689 48.5269166 79.8483124 48.4298304 80.4955537 48.3139499 81.2220674 48.1609286 81.942168 47.9713678 82.6530247 47.8107105 83.2555918 47.5073023 83.8106068 47.0868047 84.2711279 46.7203668 84.7378877 46.2659048 85.1282119 45.7491727 85.4199812 44.6232353 86.0411121 43.3565506 86.3624265 42.0706846 86.3530874 41.2995455 86.3833912 40.5403277 86.1556259 39.9132136 85.7058461 39.2351495 85.0904882 38.7152804 84.3208599 38.3975902 83.4620763 38.0853151 82.4678166 37.8420217 81.4531931 37.6694438 80.4254358 37.5103055 79.6618409 37.4182623 78.8857898 37.3943662 78.1061545 37.3479787 77.2065036 37.3750368 76.304568 37.4752714 75.4093158 37.4752714 75.2744738 37.5238145 74.5031779 37.5507829 72.7933822 37.6488755 71.2822801 38.3179693 69.8650354 39.422389 68.8290292 40.3349224 67.9022994 41.5642482 67.3550759 42.8635552 67.2972248L42.8581615 67.2810437zM43.0199719 70.4633135C42.5903215 70.4935722 42.1767297 70.6388883 41.8225755 70.8840203 41.3712922 71.2090748 41.0714815 71.7035677 40.9919491 72.2540144 40.9550227 72.7168905 40.9424201 73.1813858 40.9541934 73.6455832 40.9700098 74.1965692 40.9483853 74.7479932 40.8894692 75.2960485 40.7576088 76.2483445 40.723271 77.2116108 40.7869894 78.1708786 40.8052597 78.6573144 40.855711 79.1420071 40.9380123 79.6217779 41.0962411 80.5077921 41.3216276 81.3804889 41.612222 82.2323178 41.8495438 82.7716856 42.1515898 83.0251884 42.5776903 83.0144011 43.167104 83.0552088 43.7487472 82.8613277 44.1957936 82.4750333 44.5445946 82.1318355 44.7830948 81.6923942 44.8807906 81.2129128 45.054153 80.1138501 45.1425116 79.0030559 45.1450808 77.8904074 45.1450808 76.8871834 45.1450808 76.2723042 45.1450808 75.6196692 45.1113149 74.5945221 45.008603 73.572809 44.8376412 72.561454 44.8064183 72.0496418 44.6180647 71.5599223 44.2982734 71.1590979 44.0038846 70.7484297 43.5188833 70.518156 43.0145782 70.5496123L43.0199719 70.4633135zM18.2360237 37.5241249C18.9048397 37.5241249 19.1799172 37.7075099 19.1799172 38.3008145 19.208956 38.7002323 19.1688127 39.1016652 19.0612563 39.4874235 18.9102334 39.9297051 18.7646041 40.1508458 18.5218886 40.1508458L12.1735302 40.3018688 7.74532091 40.3018688C6.78308278 40.2275662 5.81654789 40.2275662 4.85430976 40.3018688 3.37104845 40.4528918 3.05821515 40.5230096 2.98809734 40.5230096 2.70894461 40.5314175 2.43103816 40.5639001 2.15747101 40.6200958 1.86549153 40.6718475 1.56943438 40.6971206 1.27290789 40.6956073.733540142 40.6956073.528580397 40.247932.528580397 39.3633689.539367752 38.6945529.690390722 38.3169955.987042985 38.2468777 1.61242972 38.0681147 2.26295567 37.9934044 2.91258586 38.0257369 3.13372664 38.0257369 3.45195361 37.9124697 4.88667183 37.8423519 6.32139005 37.7722341 7.15201639 37.7776277 7.58351059 37.7776277L12.3299468 37.8531392C13.2954151 37.7776277 14.4874178 37.7075099 15.889774 37.6319984 17.2921301 37.556487 17.8261042 37.556487 18.1928743 37.556487L18.2360237 37.5241249zM10.0538149 49.7947412C10.6902688 49.7947412 11.6719181 49.8271033 12.9825818 49.9403705 13.7299362 50.0144152 14.4818922 50.0306444 15.2317453 49.9889136 15.454165 50.0104266 15.6781416 50.0104266 15.9005613 49.9889136 16.073159 49.9457642 16.2835124 49.8972211 16.5370153 49.8540717 16.6664635 49.8540717 17.211225 49.8864338 17.7613801 49.9241895L18.8023598 49.9619452C19.0834243 49.9441717 19.3417247 50.1163719 19.4334201 50.3826521 19.6031207 50.7512616 19.6896663 51.152686 19.6869229 51.5584738 19.6940894 51.8026918 19.6631541 52.0465349 19.5952304 52.2812266 19.5466873 52.4268559 19.5035379 52.507761 19.4172391 52.5509104 19.2701758 52.6107074 19.1120059 52.6382952 18.9533828 52.6318156 18.8239345 52.6318156 18.2953541 52.5940599 17.8261042 52.5563041 17.4901219 52.5389634 17.1534688 52.5389634 16.8174865 52.5563041 16.5742987 52.5428522 16.3303756 52.5536932 16.08934 52.5886662 15.8696258 52.6195954 15.6477224 52.632224 15.4259177 52.6264219 14.7894637 52.6264219 14.3471822 52.6264219 13.0904553 52.5724852 11.8337285 52.5185484 10.8844412 52.4646116 10.2479873 52.4700053 9.52523449 52.4700053 8.92653629 52.5239421 7.10886697 52.6641777 6.33635339 52.7065357 5.56209921 52.7065357 4.78958563 52.6641777 4.41974233 52.6920011 4.04833137 52.6920011 3.67848807 52.6641777 2.73998818 52.6102409 2.25995088 52.5940599 1.79609461 52.5940599 1.50837085 52.6327661 1.21553832 52.5994055.943893565 52.4969737.814445305 52.340557.776689562 52.0978415.771295885 51.7580399.773259727 51.3648419.833236216 50.974086.949287243 50.5983992 1.08797289 50.2486566 1.42012373 50.0138239 1.79609461 49.999701 2.6860514 49.999701 3.23620651 49.9673389 3.53285877 49.999701 4.12609416 50.0663666 4.72493064 50.0663666 5.31816603 49.999701 6.34567246 50.0294996 7.37404217 49.9988827 8.39795589 49.9080085 9.88121721 49.7677728 9.87042985 49.7677728 10.0807833 49.7677728L10.0538149 49.7947412zM15.2263516 43.7700035L15.9868602 43.7700035 17.8746473 43.7700035C18.0555764 43.7583366 18.237242 43.7728699 18.414015 43.8131529 18.5363299 43.848704 18.6319668 43.9443408 18.6675179 44.0666557 18.7299995 44.2728564 18.759133 44.487716 18.7538167 44.7031097 18.7906214 45.2247733 18.7037653 45.747758 18.5003139 46.2295204 18.2777851 46.3767621 18.0100617 46.4398683 17.745199 46.4075118 17.4916962 46.4075118 16.4561101 46.4075118 16.073159 46.3373939 15.8614358 46.3183329 15.6484282 46.3183329 15.436705 46.3373939 14.968569 46.3231368 14.5000069 46.3411584 14.0343489 46.3913307 13.2738404 46.4776296 12.8045904 46.520779 12.594237 46.520779L8.24693292 46.4776296C7.90713124 46.4776296 4.63856266 46.2888509 3.70545645 46.3751497 2.77235024 46.4614485 2.15747101 46.4992043 2.11971526 46.4992043 1.82968926 46.5329712 1.53587681 46.490201 1.26751422 46.3751497 1.19191344 46.1982055 1.12883204 46.0161706 1.0787355 45.8303883.990327501 45.6008919.939337683 45.3586903.927712533 45.1130292.927712533 44.3039775 1.18121538 43.8832707 1.65046532 43.8832707 1.77991358 43.8832707 2.47569798 43.8401213 3.40880419 43.710673 4.55226382 43.5812247 7.8208324 43.710673 7.95028066 43.710673L12.1681365 43.7484287C12.3407342 43.7484287 12.8477398 43.710673 13.6999409 43.6675236 14.5521419 43.6243742 14.9998172 43.6675236 15.0807223 43.6675236L15.2263516 43.7700035zM65.3659778 40.4744665C64.7510986 40.7387567 64.610863 40.9868659 64.8266101 41.553202 64.919579 41.939959 65.0842335 42.3058579 65.312041 42.6319375 65.6248743 42.9825265 65.8514088 43.1281558 66.0509749 43.041857L71.9246897 40.7063946 74.1091291 39.7732884 76.0184909 38.9642368C76.72754 38.6205787 77.4635395 38.3355593 78.2191113 38.1120357 78.8198719 37.9641913 79.3984229 37.7374863 79.9396945 37.437826 80.0098123 37.405464 79.9396945 37.3461335 80.3873697 37.2436537 80.6782304 37.1722308 80.9631438 37.0784619 81.2395707 36.9631824 81.7142144 36.7582227 81.7789385 36.3483032 81.4337431 35.5338579 81.1694529 34.9189786 80.8943754 34.6331137 80.5869358 34.6816568 80.0500279 34.7508519 79.5306286 34.919108 79.0551313 35.1778752 78.8501716 35.264174 78.5157636 35.2965361 77.1673442 35.7819671 75.8189248 36.267398 75.549241 36.4130273 75.1662899 36.585625L70.8513478 38.5111679C69.9344227 38.8240012 68.8125377 39.2177396 67.4910868 39.7031706 66.1696358 40.1886016 65.8028657 40.3450182 65.4522767 40.4744665L65.3659778 40.4744665zM73.8610199 50.7224538C73.2515343 50.5552498 72.2968534 50.3395027 70.9969771 50.1129682 70.1369454 49.9514511 69.2897247 49.727929 68.4619487 49.4441522 68.2922846 49.4133785 68.1273096 49.360804 67.9711241 49.2877356 67.8147074 49.2068304 67.5180551 49.1151379 67.2807333 49.0072643 66.9924024 48.9055862 66.6966752 48.8262447 66.3961702 48.7699425L65.6086933 48.5973448C65.4037336 48.5380144 65.1556244 48.6458879 64.8589721 48.9155718 64.5542668 49.1772215 64.3361049 49.525152 64.2333055 49.9134021 64.1564307 50.1202587 64.1396026 50.3446343 64.1847624 50.5606434 64.2158628 50.6786319 64.2772145 50.7864622 64.3627538 50.8734767 64.4966918 50.9559482 64.6448657 51.0126567 64.7996417 51.0406807 65.0784351 51.1474853 65.3651803 51.2322464 65.6572364 51.2941836 66.115699 51.3750887 66.4555007 51.4236318 66.6227047 51.4721749 66.8465469 51.5209981 67.065118 51.5914466 67.2753397 51.6825284 67.4764383 51.7712433 67.6837473 51.8451534 67.8956126 51.9036691 68.6579412 52.1768163 69.4360418 52.4037623 70.2256813 52.5832725 71.4770144 52.8367754 72.3831523 53.0471288 72.9980315 53.2143328 73.795359 53.4115457 74.5790815 53.6601749 75.3442812 53.9586603 76.1425455 54.2660999 77.0864391 54.4117292 78.1058441 54.6975941 78.558913 54.8216487 78.6020624 54.8701918 79.5783181 55.1021199 80.5545737 55.334048 80.4790622 55.2962923 80.9267374 55.4203469 81.2120007 55.5284977 81.518879 55.5673196 81.8220879 55.5336141 81.9677172 55.485071 82.1025591 55.301686 82.1942517 54.9942464 82.3470244 54.597065 82.3789264 54.1635741 82.2859442 53.7483069 82.1511022 53.2736632 81.9245678 52.9877983 81.6387029 52.9122868 81.2559912 52.7836376 80.8624566 52.689767 80.4628812 52.6318156 79.7303298 52.5106263 79.0088093 52.3302462 78.3054102 52.0924479 77.404666 51.8443387 77.3291545 51.8767008 76.1101834 51.4937497 74.6916462 51.0406807 74.2008216 50.9058388 73.9958618 50.8465084L73.8610199 50.7224538zM42.2594633 33.759338C42.1677708 33.759338 42.1677708 33.8510305 42.1677708 33.942723 42.2109202 33.942723 42.2594633 33.8510305 42.2594633 33.759338z"/>
        <polygon fill="#373538" fill-rule="nonzero" points="45.701 58.322 45.701 58.506 45.523 58.506"/>
        <polygon fill="#373538" fill-rule="nonzero" points="43.527 35.528 43.705 35.528 43.705 35.712"/>
        <polygon fill="#373538" fill-rule="nonzero" points="39.541 45.906 39.719 46.316 39.541 46.316"/>
        <polygon fill="#373538" fill-rule="nonzero" points="35.323 55.922 35.507 55.922 35.733 56.1 35.323 56.1"/>
        <path fill="#373538" fill-rule="nonzero" d="M40.5334865 33.7161886C40.5334865 33.8510305 40.4903371 33.8995736 40.3986446 33.8995736 40.3069521 33.8995736 40.3069521 33.8510305 40.3069521 33.7161886 40.3069521 33.5813466 40.3554952 33.5813466 40.3986446 33.5813466 40.4358308 33.57581 40.4734408 33.5882233 40.5000253 33.6148078 40.5266098 33.6413923 40.5390232 33.6790023 40.5334865 33.7161886zM38.9045959 49.7138361C39.0166091 49.7279037 39.097545 49.8278833 39.087981 49.9403705 39.0800141 50.0372358 39.0016558 50.1132894 38.9045959 50.1183619 38.8129034 50.1183619 38.769754 50.032063 38.769754 49.9403705 38.769754 49.848678 38.8344781 49.7138361 38.9045959 49.7138361zM52.3186719 50.7224538C52.4103644 50.7224538 52.4535138 50.8087526 52.4535138 50.9489882 52.4535138 51.0892238 52.4103644 51.1269796 52.3186719 51.1269796 52.2696565 51.1318654 52.2209805 51.1148897 52.1856337 51.0805825 52.1502869 51.0462753 52.131866 50.9981276 52.1352869 50.9489882 52.1352869 50.7979653 52.18383 50.7224538 52.3186719 50.7224538zM40.1289607 58.5055304C40.2206532 58.5055304 40.2638027 58.5918293 40.2638027 58.7320649 40.2638027 58.8723005 40.2206532 58.9100562 40.1289607 58.9100562 40.0799453 58.9149421 40.0312694 58.8979664 39.9959225 58.8636591 39.9605757 58.8293519 39.9421548 58.7812043 39.9455757 58.7320649 39.9455757 58.5918293 39.9941188 58.5055304 40.1289607 58.5055304z"/>
        <polygon fill="#373538" fill-rule="nonzero" points="53.494 38.748 53.904 38.926 54.309 38.926 54.309 39.11 53.494 39.11"/>
        <path fill="#373538" fill-rule="nonzero" d="M42.1192277 33.5328035C42.2109202 33.5328035 42.2594633 33.6730391 42.2594633 33.759338 42.2594633 33.7355072 42.278782 33.7161886 42.3026128 33.7161886 42.4146259 33.7302562 42.4955618 33.8302358 42.4859978 33.942723 42.4783327 34.0406533 42.4005431 34.118443 42.3026128 34.1261081 42.2109202 34.1261081 42.1677708 34.0344155 42.1677708 33.942723L42.1192277 33.942723C42.0700883 33.9461439 42.0219407 33.927723 41.9876335 33.8923762 41.9533262 33.8570293 41.9363505 33.8083534 41.9412364 33.759338 41.9412364 33.624496 41.9843858 33.5328035 42.1192277 33.5328035zM41.8926933 35.5284642L42.7125322 35.5284642C42.7125322 35.5284642 42.3026128 35.9383837 42.1192277 35.9383837L41.7147019 35.9383837 41.8926933 35.5284642zM39.5410499 34.3526425C39.3145154 34.5306339 38.9045959 34.9405534 38.9045959 35.1185447 38.7212109 35.3450792 37.9067656 37.3407399 37.7287742 37.5241249L37.5022398 37.7506593 37.5022398 37.5241249C37.5022398 37.1573548 38.5432195 35.7981481 38.5432195 35.3666539 38.7536502 35.002077 39.0131758 34.668142 39.3145154 34.3742172L39.5410499 34.3526425z"/>
        <path fill="#373538" fill-rule="nonzero" d="M31.7417922 53.6997638L32.1085623 54.3362177 32.9014328 54.9241286C33.1279673 55.1075136 33.4893437 55.5120394 33.7158782 55.6954244L34.8970935 57.0977806C35.3949704 57.4768543 35.9256515 57.8107862 36.4828347 58.0956109L37.29728 58.5055304C37.4806651 58.5055304 38.2951104 59.3199757 38.5216448 59.3199757L38.8830212 59.5033608C39.789159 59.5033608 40.2853774 60.3178061 40.6952969 60.0912716L42.5075725 60.0912716C42.6909575 60.0912716 43.5054028 59.9078866 43.6887879 59.9078866L44.2766987 59.9078866C44.5032332 59.9078866 45.2745291 59.7298952 45.5010635 59.7298952L46.0889744 59.7298952C47.1171767 59.5764435 48.0865882 59.1540703 48.8990804 58.5055304L49.4869912 58.0956109C49.6703762 58.0956109 50.8893474 57.324315 51.0727324 57.324315 51.5689507 57.324315 52.9767006 55.7385739 53.4729189 55.1075136 53.6994533 54.9241286 54.4707492 53.6997638 54.6972837 53.5163787 55.0586601 52.7019334 56.2830249 50.5282814 56.2830249 50.2801722L56.2830249 49.7138361C56.2398755 49.7569855 55.511729 48.4894713 55.0586601 47.9015604L54.4761429 47.1302645 53.8882321 46.1324342 53.4783126 45.9058997 53.3003212 45.9058997C52.0759564 45.9058997 51.0781261 46.1324342 49.9023044 46.1324342L49.3089998 46.1324342 48.4945545 45.9058997C48.3165632 45.9058997 47.4967242 45.7225147 47.4967242 45.7225147L45.5226382 45.7225147C45.4740951 46.4021181 45.3824026 46.9468795 43.5269776 49.530451L42.7125322 49.530451 41.7147019 48.8993908C40.6737221 47.8530173 40.7168716 45.6631843 40.7168716 44.5035436 40.7168716 44.1367735 40.9002566 42.1465065 40.9002566 41.5100526 40.9002566 38.2037283 42.0760783 36.8876709 42.5183599 36.752829L43.9261097 36.752829 44.104101 37.1142054C44.104101 37.7506593 44.5140205 38.2468777 44.5140205 38.926481L44.6920119 39.1098661 46.2777531 39.5143919 46.6876726 39.7409263 47.0975921 40.1076964 47.2755834 40.7387567 47.6855029 41.3266675C47.9120374 41.3266675 48.3219569 41.5100526 48.4999482 41.5100526L49.4977786 41.5100526C49.6811636 41.5100526 50.6736003 41.736587 50.9001347 41.736587L53.4837062 41.736587C53.7102407 41.736587 54.8914561 41.5100526 55.0694474 41.5100526L56.6875507 41.5100526 56.865542 41.1486762 56.865542 40.9221417C56.8223926 40.6039148 56.1859387 40.1076964 55.8731054 39.7409263 55.8731054 38.2954208 54.69189 35.9653521 54.69189 35.7118492L54.0608297 34.9405534C54.0608297 33.4896541 50.4308848 30.2696286 50.0695084 29.9567953 50.0695084 29.9567953 49.4815975 29.3203414 49.2982125 29.3203414L48.3057758 28.958965C48.0792414 28.958965 47.2594024 28.322511 47.081411 28.322511L46.0835807 28.1445197 45.6736612 27.9611347C45.4913725 27.8540332 45.2927738 27.777509 45.0857504 27.7346002L44.2982734 27.5296405 43.6887879 27.3246807 42.0706846 27.3246807 41.5313169 27.1466893 41.1267911 27.1466893C40.9002566 27.1466893 40.7168716 27.5512152 40.4903371 27.5512152 40.4903371 27.5997583 40.5334865 27.9611347 40.7168716 27.9611347L41.7147019 27.9611347 42.3026128 28.1445197 43.6887879 28.1445197C44.3687163 28.2795251 45.0349025 28.4763117 45.6790549 28.7324305L46.4935002 29.1369564 47.2647961 29.3203414C47.4913305 29.5468758 48.6725459 29.9567953 48.8828993 30.1347867L49.0608907 30.5447062C49.0608907 30.7226975 50.058721 31.3160021 50.058721 31.5425365L51.0943071 32.923318C51.1859996 33.2415449 51.682218 33.6514644 51.682218 34.3310678 51.9087524 34.9189786 52.4966633 37.0926307 52.6800483 37.7290846L52.4966633 37.907076 51.9087524 37.907076C49.7029104 37.8961957 47.4991967 37.7683659 45.3068911 37.5241249L44.9401211 37.1142054C44.6219665 36.3464391 44.409669 35.5389828 44.3090608 34.7140189L44.1256758 34.3526425C43.8776768 34.0569962 43.6052334 33.7827485 43.3112305 33.5328035L42.3026128 32.923318 39.9132136 32.923318C38.8722339 33.106703 37.966096 34.3742172 37.5130271 34.6924442 36.6931881 36.5478693 35.8949239 37.7290846 35.8949239 39.7193516L35.8949239 43.1713052C35.8949239 43.5326816 36.3048434 45.9328681 36.3048434 46.5693221 36.3048434 49.6922614 38.4623144 51.1431606 38.7050299 51.1431606 39.2066419 51.6447726 40.1559291 51.7310715 40.8625009 51.7310715L41.2670267 51.7310715C42.8851299 51.7310715 45.4848825 49.6491119 45.4848825 48.9263592 45.9832442 48.3181155 46.2540729 47.5552176 46.2507847 46.7688882L47.6585345 46.7688882C47.885069 46.7688882 49.8807297 47.356799 50.058721 47.356799L50.2852555 47.356799C51.0565514 47.356799 51.6444622 47.1788076 52.2809162 47.1788076L52.4589075 47.1788076 52.6422926 47.356799 52.6422926 47.7667185C52.685442 48.4031724 51.6444622 49.2607672 51.6444622 49.9889136 51.365776 50.3662605 51.1082802 50.7588066 50.8731663 51.1647353L47.885069 54.1582263C46.4341697 55.6091256 43.8074488 55.970502 43.2626874 56.1484934L42.7125322 56.1484934 41.8926933 56.3750278 39.1311304 56.3750278C38.7212109 56.1484934 36.3210244 55.1560567 35.8949239 54.9726717L34.9186682 54.498028C34.6428452 54.4023807 34.3828727 54.2660315 34.1473724 54.0935022L32.9014328 53.1118529C32.9014328 53.1118529 32.4915134 52.5239421 32.313522 52.2974076L31.9036025 51.7041031C31.9036025 51.5261117 30.9057722 50.7116664 30.9057722 50.5282814L30.7439618 50.1183619C30.7439618 48.9856896 29.6112896 47.8098679 28.9316862 46.8821554L28.9316862 39.7409263C29.1556218 38.9255104 29.4275782 38.1240495 29.7461315 37.3407399 29.7461315 37.1142054 30.5174274 35.9383837 30.5174274 35.7226366L30.9219532 34.7248063C32.8744645 31.8661572 33.5540678 30.7334849 34.1581597 30.7334849 34.5018018 30.5568718 34.8349658 30.3605752 35.15599 30.145574L35.5173664 29.9675827C38.2951104 28.958965 38.0901506 28.608376 39.9132136 28.322511L40.1397481 27.9611347C38.7622827 27.8807249 37.3865622 28.145857 36.1376394 28.7324305L35.1452027 29.3203414C33.2412345 29.3203414 30.8302607 33.4896541 30.339436 33.942723 30.339436 34.1261081 29.5249907 35.3450792 29.5249907 35.5284642 29.5249907 35.7118492 28.9370799 36.3429095 28.9370799 36.5262945 28.2690815 37.9836975 27.8689594 39.5494718 27.7558645 41.1486762L27.7558645 42.1465065C27.7852619 43.28702 27.9061084 44.4233372 28.1172409 45.5445234L28.1172409 45.9058997 27.9392495 46.3158192 27.9392495 46.9037301 28.1172409 47.3082559C28.1172409 47.5347904 29.1150712 48.5326207 29.1150712 48.7160057L29.3416057 49.1259252C29.3416057 49.3039166 29.7515252 50.1183619 29.7515252 50.3017469L29.9295165 50.7116664C30.7493555 51.7526462 31.2887233 52.7504765 31.9251772 53.5163787L31.7417922 53.6997638zM64.9992077 60.1829641C65.3351882 60.0539244 65.6911261 59.9845622 66.0509749 59.9780044 66.4177449 59.9780044 66.5903426 60.0373348 66.633492 60.2045388 66.7521529 61.105283 66.8869949 62.9013776 67.0541989 65.6305784 67.2214029 68.3597792 67.1728598 71.0242559 67.1243167 72.1029914 67.0380178 73.3597183 66.8816012 74.9670342 66.3799892 78.0360367 66.2613283 78.7480021 65.6842048 79.2927636 64.6594061 79.6972894 63.7209062 80.0640595 63.0844522 80.1395709 62.7068948 79.8698871 62.5396908 79.7620135 62.0704409 78.7533958 61.3045386 76.8548213 60.5386364 74.9562468 60.0316307 73.8775113 59.5785618 72.4859425 59.4831463 72.1307556 59.3623776 71.7828698 59.2171854 71.4449628 59.0607688 71.1590979 58.9475016 71.0296496 58.8935648 71.0512243 58.839628 71.072799 58.6832114 72.7772011 58.4135275 76.2021864 58.1438436 79.6271716 58.019789 81.493384 58.0251827 81.8008236 58.0376214 81.9945401 58.0212624 82.1890302 57.9766396 82.3779471 57.8785599 82.5936323 57.7414081 82.7893022 57.5721138 82.9550706 57.3210688 83.1850459 57.0305372 83.3677702 56.7145191 83.4944384 56.1517668 83.7238844 55.5527843 83.851716 54.9453929 83.8719958 54.4060251 83.8719958 54.0608297 83.6993981 53.9313815 83.4297142 52.9544209 81.4807627 52.1198159 79.4636504 51.4341088 77.3941891 51.3909594 77.3078902 51.1644249 76.5204133 50.727537 75.0155773L49.4815975 70.8246899C49.2280702 70.0337954 49.0209598 69.2287662 48.8613246 68.413716 48.8613246 68.246512 49.0501033 67.9552534 49.4600228 67.5830897 49.7752755 67.2747735 50.1398862 67.021369 50.5387583 66.8333685 50.7775396 66.7077843 51.0461427 66.64996 51.3154479 66.6661645 51.5439864 66.7500674 51.7351905 66.9125909 51.8548156 67.1246271 52.2611393 67.6316328 53.0558078 70.2188001 54.2388211 74.886129 54.3628757 75.3607727 54.5300797 75.9648645 54.7781888 76.6660426 55.026298 77.3672207 55.1719273 77.8418643 55.2366514 78.0953672 55.8083813 71.542049 56.2830249 68.0415523 56.6390076 67.6909632 57.0519748 67.2286235 57.5597156 66.8606953 58.1276626 66.6122277 58.3580539 66.5220463 58.5991963 66.462214 58.8450217 66.4342364 59.0877372 66.4342364 59.1686423 66.391087 59.3843894 66.3641186 59.5247997 66.3376873 59.6676984 66.3268343 59.81049 66.3317565 60.2689526 66.2940008 60.8892255 67.259469 61.7198518 69.1202878 62.5761424 70.921996 63.2832846 72.790872 63.8341734 74.7081377L63.9258659 71.1321295C63.9258659 70.7815405 63.9851964 68.4352907 63.823386 65.9703801 63.6661713 64.412977 63.6391091 62.8451755 63.7424809 61.2832743 63.8341734 60.7924497 64.2818486 60.3771365 65.0639319 60.0643032L64.9992077 60.1829641z"/>
        <g transform="translate(92.452 41.498)">
          <path fill="#353131" fill-rule="nonzero" d="M5.5186718 4.38053102C5.6850362 4.38053102 5.80149129 4.56353187 5.86803705 4.87962425 5.93336585 5.12534655 5.95772308 5.38016074 5.9401283 5.63380956 5.9401283 5.70035532 5.60739948 5.77244657 4.96412377 5.83344685 4.5502783 5.88428978 4.13280207 5.89913338 3.71639071 5.87781069 3.46103168 5.84662588 3.2099384 5.78710747 2.96775088 5.70035532L2.87902319 6.29926719C2.87902319 6.42681324 2.87902319 6.63199601 2.84575031 6.90372454 2.81247743 7.17545307 2.84575031 7.38618132 2.80693195 7.52481833 2.66961411 8.42316643 2.48450209 9.31355524 2.25238392 10.1921943 2.18029268 10.4583774 1.93074607 10.558196 1.49819861 10.4971957.982468944 10.4251045.738467813 10.292013.771740695 10.0480118.771740695 9.8927384.87710482 9.42137258 1.04346923 8.64500534 1.20983364 7.86863811 1.29301584 7.43054517 1.3041068 7.34736296 1.32750427 7.14668529 1.34046119 6.94492764 1.34292516 6.74290561 1.34292516 6.4656316 1.34292516 6.26599431 1.37619804 6.13290279 1.42610737 5.75026465 1.50374409 5.25117142 1.59801725 4.62453215L1.84756386 2.96088808C1.92520059 2.47288581 1.97510991 2.20670276 1.98065539 2.16233892 2.00846481 1.86927177 2.02142085 1.57498474 2.01947375 1.28060756 2.01947375.903514902 2.01947375.670604731 2.01947375.570786086 2.01947375.470967441 2.16365624.332330435 2.38547545.299057553 2.6010245.274019276 2.81874759.274019276 3.03429664.299057553L3.85502772.44324004 4.8143958.604058968C5.17375961.657765105 5.52804033.741234385 5.87358253.853605579 6.31167547.986697105 6.53349468 1.10869767 6.51685824 1.20851632 6.49553541 1.37931742 6.46029687 1.54809148 6.41149412 1.71315502 6.36645995 1.88571518 6.30325796 2.05301458 6.22294779 2.21224824 6.15085655 2.36197621 6.08985626 2.42852197 6.03440146 2.41743101 5.78010386 2.3752316 5.52971169 2.31216987 5.28576162 2.22888468 5.04181155 2.1455995 4.79141939 2.08253776 4.53712179 2.04033835 4.50939439 2.04033835 4.41512122 2.04033835 4.2543023 1.98488355L3.81066388 1.90724683C3.70184919 1.89687843 3.59229522 1.89687843 3.48348054 1.90724683 3.48348054 1.97379259 3.48348054 2.17897536 3.45020766 2.49506774 3.41693478 2.81116011 3.41693478 3.04961576 3.39475286 3.26034401 3.37257094 3.47107226 3.31711613 3.84261944 3.25057037 4.28625786 3.42248026 4.32507622 3.63875399 4.36944006 3.89384608 4.40271294 3.92157348 4.40271294 4.18221105 4.40271294 4.69794072 4.40271294 5.21367038 4.40271294 5.47985343 4.40271294 5.53530824 4.40271294L5.5186718 4.38053102zM12.9717973 10.3807407C13.0117258 10.8001478 13.000553 11.2228525 12.9385244 11.6395647 12.9117173 11.7895852 12.7984422 11.9093953 12.6501594 11.9445661 12.4086794 11.9941712 12.159636 11.9941712 11.918156 11.9445661 11.8027597 11.9265981 11.6917706 11.8870934 11.5909727 11.828111 11.4745176 11.7560198 11.4301538 11.689474 11.4356992 11.6340192 11.5009133 11.208434 11.5176567 10.7768261 11.4856086 10.3474678 11.4856086 10.3031039 11.4301538 10.0480118 11.3358806 9.59882795 11.2416074 9.14964405 11.1639707 8.77809687 11.1196069 8.48973189L10.7480597 8.48973189 10.3654215 8.48973189 10.0216018 8.48973189C9.92739521 8.4947437 9.83298883 8.4947437 9.73878227 8.48973189 9.49411555 8.44493504 9.25313995 8.38191065 9.01786984 8.30118557 8.89090779 8.56792405 8.79060224 8.84655059 8.7184139 9.1330076 8.7184139 9.23282625 8.59086786 9.56555506 8.39677605 10.1201031 8.29842081 10.4412246 8.17607585 10.7545018 8.03077435 11.0572893 7.98137335 11.1587912 7.8993661 11.2407984 7.79786418 11.2901994 7.68408262 11.3096471 7.56782597 11.3096471 7.45404441 11.2901994 6.84404158 11.2070172 6.53904016 11.0794712 6.56122208 10.9075613 6.58340401 10.7356514 6.71095005 10.4029226 6.94386022 9.73746495 7.17677039 9.07200732 7.30986192 8.70046014 7.32095288 8.6283689 7.33204384 8.55627766 7.57049949 7.94627483 8.05850175 6.82608782 8.34211626 6.21923067 8.59204247 5.5971921 8.80714159 4.96280645 9.01742219 4.36639802 9.27904032 3.78935378 9.58905431 3.23816209 9.82925924 2.68265996 10.1285927 2.15464318 10.4818766 1.6632457 10.6758853 1.56662904 10.8976356 1.54111795 11.1085159 1.59115445 11.3530666 1.60068067 11.5881718 1.68811651 11.779519 1.84070107 11.8127919 1.89061039 11.929247 2.48952226 12.1288843 3.63189119 12.3285216 4.77426012 12.4616131 5.49517256 12.4782495 5.77244657 12.498071 6.11228057 12.498071 6.45298093 12.4782495 6.79281494 12.4685915 7.14437744 12.4797018 7.49620353 12.5115224 7.84645618 12.5115224 7.99618415 12.6057956 8.40100421 12.7222507 8.9943706 12.8387057 9.58773699 12.9163425 10.1034666 12.9551608 10.419559L12.9717973 10.3807407zM9.82196448 6.95363386C9.92178312 6.95363386 10.1269659 6.95363386 10.4375128 6.99799771 10.7480597 7.04236155 10.947697 6.99799771 10.9920608 7.03127059 10.9920608 6.66526889 10.9920608 6.37690392 10.9920608 6.15508471 10.9660382 5.84617469 10.9234617 5.5388832 10.8645148 5.23453498L10.8146054 4.77426012C10.7999896 4.60999965 10.774049 4.44694444 10.7369687 4.28625786 10.5554176 4.58845173 10.3924482 4.90142702 10.2489665 5.22344402 10.0967842 5.50007924 9.98475104 5.796967 9.91623764 6.10517538 9.83359387 6.38080774 9.72976902 6.64963995 9.60569075 6.90927002L9.816419 6.98136126 9.82196448 6.95363386zM16.8758154 2.2233392C17.2029987 2.26770305 17.3471812 2.41743101 17.3139083 2.68915954 17.2859442 2.98425749 17.2859442 3.28133844 17.3139083 3.57643639 17.3354648 3.83847987 17.3354648 4.1018511 17.3139083 4.36389458 17.2806354 4.73544176 17.1752713 5.55062736 17.0144524 6.82054234 16.9700885 7.14772567 16.8591789 7.68563726 16.687269 8.43427709 16.5469521 8.98253602 16.4358857 9.53786794 16.3545402 10.0979212 16.3545402 10.2365582 16.2990854 10.6136508 16.2491761 11.2070172 16.1992668 11.8003836 16.1659939 12.1996582 16.1493575 12.3161133 16.1470066 12.3966928 16.0853599 12.4630816 16.005175 12.4713867 15.8028762 12.4805593 15.6001813 12.4675422 15.4007176 12.4325684 14.9293518 12.3660226 14.6964416 12.244022 14.7075326 12.0443847 14.73526 11.2791085 14.7962603 10.4861048 14.8960789 9.68755563 14.9348973 9.35482682 15.0458069 8.83355167 15.2066258 8.11263924 15.3674447 7.3917268 15.4728089 6.87045166 15.5171727 6.54326832L15.8110832 4.11434797C15.8321825 3.84302902 15.8321825 3.57048132 15.8110832 3.29916237 15.7909288 2.97180862 15.8002085 2.64330633 15.8388106 2.31761237 15.8388106 2.24552112 15.9774476 2.19006632 16.2436306 2.1678844 16.4537574 2.1453689 16.6656885 2.1453689 16.8758154 2.1678844L16.8758154 2.2233392zM24.8224886 3.25479853C24.9611256 3.25479853 24.988853 3.57089091 24.9223072 4.13098441 24.8613069 4.59680475 24.7614883 4.8352604 24.6283968 4.81307848L23.430573 4.66335052 22.6819332 4.66335052C22.6320239 4.97944289 22.5432962 5.42862679 22.4268411 6.02753866 22.310386 6.62645053 22.2327493 7.13663471 22.171749 7.61909149 22.1329306 7.90191099 22.1052032 8.33445845 22.0885668 8.92782484 22.0719304 9.52119122 22.0386575 9.97037512 21.9998391 10.2698311 21.9624077 10.5404315 21.9105763 10.808844 21.8445657 11.0739257 21.7771994 11.3408894 21.7235231 11.611122 21.6837467 11.8835658 21.6724329 11.9997461 21.6724329 12.1167508 21.6837467 12.2329311 21.6837467 12.3771136 21.6837467 12.5102051 21.7114741 12.6432966 21.7182902 12.7300421 21.7182902 12.8171887 21.7114741 12.9039342 21.7107912 13.0092311 21.6778931 13.1117959 21.617201 13.1978446 21.5175323 13.2263527 21.4118683 13.2263527 21.3121996 13.1978446 20.7021967 13.1146624 20.358377 12.9926619 20.2696493 12.820752 20.2025808 12.6680936 20.1631504 12.5047393 20.1531942 12.3382952 20.1227877 12.1082338 20.1227877 11.8751715 20.1531942 11.6451102 20.1893118 11.377952 20.2411597 11.1131574 20.3084676 10.8521065 20.3751813 10.6005914 20.4251996 10.3449422 20.4581956 10.0868302 20.4951655 9.79846524 20.5228929 9.36591778 20.5413778 8.78918783 20.5598627 8.21245788 20.5875902 7.77991042 20.62456 7.49154545 20.6855603 7.02017963 20.7798335 6.4656316 20.901834 5.82790137 21.0238346 5.19017114 21.1125623 4.71880532 21.1680171 4.38053102L20.1310123 4.20862114C19.8633812 4.17219182 19.6032139 4.09358014 19.3601905 3.97571096 19.0995529 3.84816492 18.9775524 3.73170983 18.9941888 3.60416379 19.0415627 3.35566879 19.1276405 3.11614777 19.2492809 2.89434231 19.3990089 2.59488638 19.5376459 2.45624937 19.6762829 2.47843129 19.7581111 2.49554555 19.8367185 2.52549123 19.9091931 2.56715898 20.0341348 2.62888488 20.1695902 2.66651139 20.3084676 2.67806858L21.4452911 2.87770587 22.4102047 3.05516124C22.4545685 3.05516124 22.6042965 3.05516124 22.8815705 3.05516124 23.066239 3.04359685 23.25145 3.04359685 23.4361185 3.05516124 23.5858465 3.05516124 23.8187566 3.0939796 24.14594 3.121707L24.7614883 3.17716181 24.8224886 3.25479853zM28.637779 12.8651158C29.4418736 13.0370257 29.8356027 13.2089356 29.8134208 13.3753 29.7246931 14.0463031 29.5749652 14.3623955 29.3476005 14.3291226 29.3198731 14.3291226 29.2533273 14.3291226 29.1424177 14.3291226L28.7542341 14.3291226C28.6140241 14.3254229 28.4746042 14.3068336 28.3383231 14.2736678 27.5952287 14.1294853 26.963044 13.9963938 26.4417688 13.8799387 26.1321212 13.8353216 25.8354134 13.7257098 25.5711284 13.5583009 25.4790987 13.3886109 25.436812 13.1963988 25.4491278 13.0037528 25.4491278 12.266204 25.4990372 11.6284737 25.5655829 11.1016531 25.6154923 10.7411969 25.7319473 10.1367395 25.9094027 9.28828105 26.0868581 8.43982257 26.1866767 7.99063867 26.1922222 7.94627483 26.1977677 7.90191099 26.1922222 7.56918217 26.1922222 7.11999827 26.1922222 6.67081437 26.1922222 6.42126776 26.1922222 6.36581296 26.2199496 6.14953923 26.2975863 5.72253725 26.4195869 5.0903525 26.5415875 4.45816775 26.6192242 4.09771153 26.6358606 4.04225673 26.7245883 3.77607368 27.0018623 3.68734599 27.4455007 3.74834627 27.6899441 3.78404296 27.9324108 3.83216612 28.1719587 3.89252876 28.5102329 3.96462 28.7265067 4.01452933 28.8984166 4.03671125 29.1396479 4.06328527 29.3821849 4.07624526 29.6248745 4.07552961 29.867564 4.07481396 30.1101011 4.08777395 30.3513324 4.11434797 30.4456056 4.11434797 30.5343332 4.2751669 30.6286064 4.53025899 30.7083635 4.72903434 30.7424752 4.94318016 30.728425 5.15689826 30.728425 5.24562594 30.6230609 5.31771719 30.4345146 5.39535391 30.2016437 5.47331667 29.9589599 5.51811984 29.7136022 5.52844544 29.4266843 5.54522331 29.138815 5.53407998 28.8540527 5.49517256L28.6100516 5.46189967 28.3216866 5.42308131 28.0776855 5.38980843 27.9279575 5.38980843C27.8572329 5.58024125 27.8052295 5.77711146 27.7726841 5.97762934 27.7005928 6.32144911 27.656229 6.58763217 27.6285016 6.78726946 27.613152 7.01437508 27.613152 7.2422579 27.6285016 7.46936353 27.6424974 7.67245697 27.6424974 7.87627292 27.6285016 8.07936636 28.0141267 8.17490983 28.4047602 8.24896359 28.7985979 8.30118557L29.3531459 8.37882229 29.8799666 8.45091353C29.9563687 8.46198728 30.0257291 8.50162178 30.0740584 8.56182314 30.1289142 8.60882742 30.1595045 8.67816531 30.1572406 8.75036947 30.1242861 8.98762048 30.0531219 9.21796776 29.9465123 9.43246354 29.8356027 9.68201015 29.7357841 9.79846524 29.6526019 9.79846524 29.2546518 9.80680651 28.8565534 9.79199354 28.4603236 9.75410139 28.086303 9.70118218 27.7159014 9.62524986 27.3512276 9.5267367 27.3235002 9.65428275 27.2624999 9.93710224 27.1626812 10.3862861 27.0628626 10.83547 26.9963168 11.1515624 26.9574985 11.3345633 26.9305158 11.4665536 26.9101569 11.5998119 26.8964982 11.7338378 26.8964982 11.8780203 26.8632253 11.9889299 26.8465889 12.0887486 26.8299524 12.1885672 26.8465889 12.2772949 26.8465889 12.3493862 26.8441422 12.3918663 26.8441422 12.4344521 26.8465889 12.4769322 27.3930292 12.6506699 27.9483703 12.7950586 28.5102329 12.9094797L28.637779 12.8651158zM34.7100799 4.51362255C35.8191759 4.668896 36.4846336 5.16244374 36.6565434 5.9887203 36.7075114 6.31577835 36.7075114 6.64875773 36.6565434 6.97581578 36.6565434 7.06454347 36.50127 7.13108923 36.223996 7.16436211 36.0074186 7.19619862 35.7881236 7.20549079 35.5696293 7.19208951 35.2979008 7.15327115 35.1703547 7.06454347 35.1925367 6.90372454 35.198075 6.80398272 35.198075 6.70401043 35.1925367 6.60426861 35.1867624 6.47671032 35.1444111 6.35350652 35.0705361 6.24935787 34.9946341 6.12279682 34.8626485 6.04030582 34.7156254 6.02753866 34.482148 5.98904399 34.2424881 6.02190059 34.0279858 6.12181182 33.8187491 6.23049393 33.6819075 6.44101955 33.6675296 6.67635985 33.6332263 7.0472922 33.655666 7.42128631 33.7340753 7.7854559 33.78897 8.15342166 33.9051885 8.50957531 34.0778951 8.83909715 34.263842 9.14130076 34.475344 9.42701398 34.7100799 9.69310111 35.0039903 10.0202844 35.2646279 10.3031039 35.4309923 10.5304686 35.6457402 10.8111947 35.8073666 11.1288095 35.9079036 11.4676548 36.0410787 11.8865393 36.0789718 12.3298884 36.0188132 12.7652972 35.9739509 13.4627904 35.6525713 14.1135342 35.1259909 14.5731237 34.5811865 14.9786837 33.8890171 15.1320507 33.2238912 14.9945802 32.4260774 14.93429 31.7225548 14.449029 31.3827917 13.7246653 31.2693328 13.463287 31.2054001 13.1831115 31.1942454 12.8983887 31.1655431 12.5903575 31.1655431 12.2803247 31.1942454 11.9722935 31.1942454 11.7837472 31.3938827 11.7061104 31.7487934 11.7560198 32.1979773 11.81702 32.4475239 11.9112932 32.4974333 12.0443847 32.5473426 12.1774763 32.5473426 12.2883859 32.5861609 12.5545689 32.60042 12.7035288 32.6226336 12.8516196 32.6527067 12.9982073 32.6829014 13.1445534 32.7708789 13.2725206 32.8967078 13.3531181 33.0223221 13.4520431 33.1712822 13.5169744 33.3292553 13.5416644 33.6242973 13.6329973 33.9453654 13.5740165 34.1886837 13.3837859 34.432002 13.1935552 34.5667077 12.8962038 34.5492609 12.5878418 34.6056828 12.2553418 34.5428335 11.9135984 34.3718056 11.6229282 34.1442675 11.2655504 33.8823882 10.9312364 33.5898929 10.6247418 33.2957566 10.3202518 33.0320218 9.98779742 32.8024347 9.63210083 32.5409635 9.16897774 32.3679572 8.66124174 32.2922505 8.13482116 32.1827716 7.58734323 32.1565976 7.02647145 32.2146138 6.47117708 32.2838449 5.8580218 32.6053514 5.3014138 33.1018906 4.93507905 33.5704606 4.56220001 34.1740879 4.40324482 34.7655347 4.49698611L34.7100799 4.51362255zM42.1909327 5.76135561C42.3844316 5.78896418 42.5719012 5.84895445 42.7454808 5.93881098 42.8935565 5.99339431 43.0213103 6.0921131 43.1114825 6.22163047 43.1114825 6.28263075 43.233483 7.33072652 43.4109384 9.3880997 43.4109384 9.5544641 43.4719387 9.80401072 43.521848 10.1478305 43.5717573 10.4916503 43.6216667 10.7855607 43.6438486 11.0351073 43.6641784 11.2193977 43.6641784 11.405365 43.6438486 11.5896554 43.6219878 12.0171404 43.6368301 12.4457128 43.6882124 12.8706613 43.7167535 13.3418218 43.7872758 13.8094963 43.8989407 14.2681223 43.9730332 14.1062255 44.0360274 13.9394762 44.087487 13.7690291 44.1540328 13.5472099 44.226124 13.2976633 44.3203972 13.0037528 44.4146703 12.7098424 44.4812161 12.4880232 44.5422164 12.3327497 44.6032167 12.1774763 44.7862175 11.7172014 45.057946 11.0961076 45.2571868 10.6890388 45.4168897 10.2637833 45.5348573 9.82619264 45.6718734 9.080978 45.8760401 8.34968997 46.1448602 7.64127342 46.2790343 7.27984569 46.4519521 6.93401003 46.6605898 6.60981409 46.7604085 6.493359 47.0265915 6.47117708 47.459139 6.52663188 47.628315 6.55511692 47.7926104 6.60739272 47.9471413 6.68190533 48.1301421 6.76508753 48.2188698 6.83717878 48.2244153 6.90927002 48.179665 7.00798373 48.1296848 7.10424193 48.0746873 7.19763499 47.9859596 7.35845392 47.87505 7.56363669 47.747504 7.80763782 47.6317883 8.02236678 47.5352907 8.24690928 47.459139 8.47864093 47.258306 9.09561812 47.0916881 9.72321235 46.9600458 10.3585587 46.9053339 10.560134 46.8386703 10.7582733 46.7604085 10.9519251 46.6550444 11.2181082 46.5164073 11.5342006 46.3500429 11.9002023 46.1836785 12.266204 46.039496 12.5822963 45.9396774 12.8484794 45.8731316 13.0259347 45.7012217 13.513937 45.4350387 14.3069407 45.1688556 15.0999444 44.941491 15.7044017 44.7473991 16.1424947 44.6753079 16.3088591 44.1484873 16.3088591 43.1891192 16.1757675 43.0615731 16.1757675 42.9451181 16.0260396 42.828663 15.7487656 42.7177356 15.484872 42.6359182 15.2096681 42.5846618 14.9280345 42.4122966 14.1186557 42.301073 13.2974552 42.251933 12.4713867 42.2717422 12.2537142 42.2717422 12.0346925 42.251933 11.81702 42.251933 11.539746 42.2075692 11.3012904 42.1909327 11.1127441 42.1742963 10.9241977 42.1299325 10.6247418 42.0689322 10.2088308 42.0079319 9.79291976 41.974659 9.53782766 41.9691135 9.46573642 41.9025678 8.91118839 41.8526584 8.24573076 41.8027491 7.40836324 41.7657722 6.91944095 41.7546658 6.42890582 41.7694762 5.93881098 41.7694762 5.83899233 41.8193856 5.76690109 41.8803858 5.74471917 41.9976952 5.72302866 42.1179872 5.72302866 42.2352966 5.74471917L42.1909327 5.76135561zM52.7994365 7.00354319C53.2601976 7.06978319 53.6938135 7.26164863 54.052715 7.55809121 54.3678396 7.77871975 54.6278232 8.06906646 54.8124458 8.40654969 55.1340837 9.23282625 55.1784475 10.6247418 54.9399919 12.5102051 54.8623551 13.0647531 54.7847184 13.6193011 54.6959907 14.0740305 54.6070273 14.560365 54.473369 15.0374511 54.2967161 15.4992189 54.1444406 15.9333977 53.9255498 16.3412456 53.647895 16.7081336 53.3951507 17.0136724 53.0766869 17.2582071 52.7162543 17.4235006 52.3005229 17.5943225 51.8454766 17.6461632 51.4019755 17.5732286 50.8930626 17.5386713 50.4010354 17.3765693 49.9712415 17.1018627 49.4476038 16.5975653 49.1095609 15.9312494 49.0118735 15.210854 48.8595425 14.3782707 48.8370945 13.5271157 48.9453277 12.6876605 49.2558746 10.2587401 49.7605133 8.58400506 50.4647893 7.69672822 50.698048 7.3648689 51.0358391 7.12080018 51.4241574 7.00354319 51.8858748 6.89285544 52.3655965 6.87963477 52.8327094 6.96472482L52.7994365 7.00354319zM52.5997992 8.47309545C52.4000038 8.43618511 52.1951372 8.43618511 51.9953418 8.47309545 51.8104998 8.54401895 51.6597366 8.68287986 51.5738853 8.86127907 50.9260203 10.1403743 50.5377683 11.5350659 50.4315164 12.9649345 50.2596065 14.3235771 50.3816071 15.3162181 50.8086091 15.9373119 50.8494471 15.9879925 50.9004526 16.0295525 50.958337 16.0593124 51.0075781 16.0908456 51.0620309 16.1133778 51.119156 16.1258582L51.3465206 16.1591311 51.523976 16.1591311C51.6991078 16.182342 51.8771477 16.1513785 52.0341602 16.0704034 52.1923436 15.9937189 52.3322698 15.884047 52.4445257 15.7487656 52.5790306 15.5821205 52.6857663 15.3948648 52.7606181 15.1942175 52.8604368 14.9613074 52.943619 14.7394881 53.0101647 14.5287599 53.082256 14.3180316 53.1377108 14.068485 53.2042565 13.7856655 53.2708023 13.502846 53.3151661 13.2311175 53.3428935 13.0314802 53.3706209 12.8318429 53.3983483 12.5767508 53.4316212 12.3050223 53.6645314 10.4750138 53.6922588 9.40473614 53.5148034 9.07200732 53.3342741 8.70473983 52.9830435 8.45118872 52.5776173 8.39545873L52.5997992 8.47309545zM62.5262089 8.43982257C62.6648459 8.43982257 62.6981187 8.75591495 62.6260275 9.31600845 62.5650272 9.78737428 62.4652086 10.0202844 62.332117 9.99810253L61.1398388 9.84837456 60.391199 9.84837456C60.3357441 10.1644669 60.2525619 10.6191963 60.1361069 11.2125627 60.0196518 11.8059291 59.9364696 12.3216588 59.8754693 12.8041155 59.8421964 13.086935 59.814469 13.5194825 59.7922871 14.1128489 59.7701052 14.7062153 59.7423778 15.1553992 59.7035594 15.4548551 59.6661279 15.7254556 59.6142966 15.993868 59.548286 16.2589497 59.4794322 16.5252687 59.4275699 16.7956935 59.3930125 17.0685899 59.3812249 17.1847467 59.3812249 17.3017983 59.3930125 17.4179551 59.3930125 17.5621376 59.3930125 17.6952291 59.4262854 17.8283206 59.4311853 17.9151308 59.4311853 18.0021481 59.4262854 18.0889582 59.4262854 18.2497771 59.3819215 18.3440503 59.3320122 18.3828687 59.2323435 18.4113767 59.1266795 18.4113767 59.0270108 18.3828687 58.417008 18.2996865 58.0731882 18.1776859 57.990006 18.005776 57.9180561 17.8545274 57.8766004 17.6905886 57.8680054 17.5233192 57.8403469 17.2930853 57.8403469 17.0603682 57.8680054 16.8301342 57.8957328 16.6415879 57.9400967 16.3754048 58.0232789 16.0371305 58.0884632 15.7849476 58.1402931 15.5295003 58.1785523 15.2718543 58.2118252 14.9871863 58.2395526 14.5546388 58.2617345 13.9742119 58.2617345 13.4196638 58.3060984 12.9649345 58.3393713 12.6765695 58.4003715 12.2052037 58.5001902 11.6506556 58.6166453 11.0129254 58.7331004 10.3751952 58.8273735 9.90382936 58.8828283 9.56555506L57.8458235 9.39364518C57.5783689 9.35640783 57.3183256 9.27783358 57.0750018 9.16073501 56.8143642 9.03873444 56.6923636 8.91673387 56.7090001 8.78918783 56.7565766 8.54250582 56.8426593 8.30484271 56.9640922 8.08491184 57.1138201 7.7854559 57.2524571 7.64127342 57.3910941 7.66345534 57.4747587 7.6802793 57.5552374 7.71022485 57.6295498 7.75218302 57.7544915 7.81390893 57.8899469 7.85153543 58.0288244 7.86309263L59.1379204 8.06272991 60.1083795 8.24018528C60.1471978 8.24018528 60.3024713 8.24018528 60.5741998 8.24018528 60.7680918 8.22773069 60.9625832 8.22773069 61.1564752 8.24018528 61.3062032 8.24018528 61.5335679 8.27900364 61.8607512 8.30673105L62.4762995 8.36218585 62.5262089 8.43982257zM67.689051 17.2183178C67.7354511 17.4342385 67.7947084 17.6471946 67.8665063 17.8560481 67.9774159 18.1887769 68.0716891 18.5104147 68.1604168 18.8098707 68.2190016 18.9897321 68.2562272 19.1758602 68.2713264 19.3644187 68.2545258 19.4427851 68.2064506 19.5108916 68.1382349 19.552965 68.0462737 19.6010944 67.9407444 19.6167284 67.8387789 19.5973289 67.7078281 19.5849429 67.5760006 19.5849429 67.4450498 19.5973289 67.2845889 19.6125046 67.123054 19.6125046 66.9625931 19.5973289 66.8017741 19.5973289 66.7241374 19.5196921 66.7296829 19.4476009 66.7320988 19.3036813 66.7153144 19.160082 66.6797736 19.0205989 66.6354097 18.8209616 66.546682 18.5215057 66.4357724 18.1111401L66.1973168 17.2515907C65.9810431 16.4641325 65.7481329 15.7044017 65.4819498 14.9723983 65.3322219 14.9723983 65.1658575 14.9723983 64.9884021 14.93358 64.871947 15.5435828 64.8164922 15.8818571 64.8054012 15.9705848 64.7943103 16.0593124 64.7610374 16.3144045 64.73331 16.6415879 64.7055826 16.9687712 64.6723097 17.1961359 64.6556733 17.3292274 64.6316786 17.502336 64.5927142 17.6730371 64.5392182 17.8394116 64.4846608 18.0039598 64.4438538 18.172752 64.4172176 18.3440503 64.4117562 18.4252923 64.4117562 18.5068094 64.4172176 18.5880514L64.4172176 18.9207803C64.4232189 18.9871907 64.4232189 19.0540071 64.4172176 19.1204175 64.4172176 19.1925088 64.2841261 19.2202362 64.0512159 19.1869633 63.7631665 19.1549745 63.4801008 19.0879327 63.2083029 18.987326 62.9975747 18.9152348 62.9033015 18.7821433 62.9310289 18.5991424 62.9587563 18.4161416 63.0031202 18.2165043 63.0973933 17.8338661 63.1916665 17.451228 63.2415758 17.2016814 63.2582122 17.0741353 63.2748487 16.9465893 63.3081216 16.7192246 63.3413944 16.4142232 63.3746673 16.1092218 63.4134857 15.8596752 63.4301221 15.7321291 63.4467586 15.6045831 63.5410317 15.061126 63.7073961 14.2015766 63.8737606 13.3420271 63.9846702 12.6543876 64.0512159 12.1663853 64.1112636 11.5971867 64.1408816 11.0251883 64.1399436 10.4528319 64.1399436 9.72637399 64.1399436 9.30491749 64.178762 9.18846241 64.2175803 8.86127907 64.6168549 8.75591495 65.3654947 8.86127907 66.2607458 8.96205493 67.1325519 9.21328506 67.9441431 9.60437343 68.3407722 9.83874077 68.6414156 10.2061938 68.7926015 10.6413782 69.0105381 11.2137775 69.073661 11.8335299 68.9756024 12.4381138 68.9199897 13.578725 68.125343 14.5489594 67.0180479 14.8282158L67.0901391 14.8282158C67.430512 15.605174 67.6744796 16.4208824 67.816597 17.2571362L67.689051 17.2183178zM65.5540411 10.4694683C65.5540411 10.4694683 65.5540411 10.6746511 65.5207682 11.0240164 65.4874953 11.3733816 65.4597679 11.828111 65.3932221 12.3715681 65.3544038 12.659933 65.298949 13.0148438 65.2324032 13.4252093 66.5411366 13.5472099 67.250958 13.1645718 67.3618676 12.266204 67.3953222 11.980664 67.3953222 11.6921944 67.3618676 11.4066545 67.3616416 11.1934794 67.268498 10.9909933 67.1067755 10.8521065 66.7713513 10.6351984 66.3930209 10.4933245 65.9976795 10.4361955 65.6871326 10.3807407 65.5318592 10.3862861 65.5263137 10.4750138L65.5540411 10.4694683zM73.439714 19.0261444C74.2438086 19.1980543 74.6375377 19.3699642 74.6153558 19.5363286 74.5321736 20.2128772 74.3824456 20.5234241 74.1495355 20.4901512 74.1218081 20.4901512 74.0552623 20.4901512 73.9443527 20.4901512L73.5617146 20.4901512C73.4196785 20.4864287 73.2784226 20.4678424 73.1402581 20.4346964 72.4027092 20.2905139 71.7705244 20.1574224 71.2492493 20.0409673 70.9387383 19.9997936 70.6413113 19.8899161 70.3786089 19.7193294 70.2815762 19.5515432 70.2389525 19.3577991 70.2566083 19.1647814 70.2566083 18.4272325 70.3065177 17.7895023 70.3730634 17.2626817 70.4174273 16.9077709 70.5394278 16.2977681 70.7113377 15.4493096 70.8832476 14.6008511 70.9886117 14.1516672 70.9941572 14.1073034 70.9997027 14.0629396 70.9941572 13.7302107 70.9941572 13.2810268 70.9941572 12.8318429 70.9941572 12.5822963 70.9941572 12.5268415 71.0218846 12.3105678 71.1050668 11.8891113 71.2270674 11.2513811 71.3490679 10.6136508 71.4211592 10.2587401 71.4433411 10.2032853 71.5320688 9.93710224 71.8037973 9.84837456 72.2529812 9.90937484 72.4027092 9.90937484 72.6411648 9.9759206 72.9794391 10.0535573 73.3177134 10.1311941 73.5339872 10.1755579 73.7058971 10.1977398 73.9452685 10.2243653 74.185963 10.2373257 74.4268095 10.2365582 74.6825548 10.2361859 74.9380966 10.2509999 75.1920858 10.280922 75.2863589 10.280922 75.3806321 10.4417409 75.4693598 10.7023785 75.5519944 10.8983991 75.5862315 11.1114305 75.5691784 11.3234723 75.5691784 11.4122 75.4693598 11.4842912 75.2808134 11.561928 75.0484972 11.6420178 74.8055002 11.6868788 74.559901 11.6950195 74.2711377 11.7118429 73.9814241 11.7007 73.6948061 11.6617466L73.450805 11.6284737 73.1679855 11.5896554 72.9239843 11.5563825 72.7742564 11.5563825C72.7006274 11.7458828 72.6485424 11.9430621 72.6189829 12.1442034 72.5468917 12.4880232 72.4969824 12.7542062 72.469255 12.9538435 72.4547351 13.1809764 72.4547351 13.4088047 72.469255 13.6359376 72.4801809 13.8409749 72.4801809 14.0464486 72.469255 14.2514859 72.8567516 14.3470194 73.2492302 14.421072 73.6448968 14.4733051L74.1994448 14.5509418 74.7539928 14.6230331C74.8278692 14.6368392 74.8945784 14.6760799 74.9425391 14.7339427 74.9965087 14.7821222 75.0285425 14.850194 75.0312668 14.922489 74.9955677 15.1591212 74.9245327 15.3890501 74.8205386 15.6045831 74.7040835 15.8541297 74.6098103 15.9705848 74.5266281 15.9705848 74.1268322 15.9788916 73.7268905 15.964079 73.3288044 15.9262209 72.9546425 15.8741207 72.5841899 15.7981779 72.2197083 15.6988562 72.1864355 15.8264023 72.1254352 16.1092218 72.0256165 16.5584057 71.9257979 17.0075896 71.8592521 17.3236819 71.8259792 17.5066828 71.7943816 17.6380329 71.7721438 17.7714594 71.7594335 17.9059574 71.7594335 18.0501399 71.7261606 18.1610495 71.7150696 18.2608681 71.7039787 18.3606868 71.7150696 18.4494144 71.6817968 18.5215057 71.6793501 18.5639858 71.6793501 18.6065716 71.6817968 18.6490517 72.2277877 18.8243417 72.7832146 18.9687527 73.3454408 19.0815992L73.439714 19.0261444zM83.6711251 11.2901994C84.2810964 11.3499818 84.8313889 11.6821955 85.1684047 12.1941127 85.4817337 12.6312046 85.6255971 13.1672437 85.5732248 13.7024833 85.5732248 13.8189384 85.4179514 13.9187571 85.1573138 14.0130302 84.9827568 14.0899742 84.7934891 14.1278277 84.6027658 14.1239398 84.5528564 14.1239398 84.5029471 14.0352122 84.4696742 13.9021206 84.4364014 13.7690291 84.3920375 13.6137557 84.3587646 13.4640277 84.3150637 13.2973389 84.2355854 13.1421669 84.1258545 13.0092983 83.996915 12.8537492 83.8113273 12.7559664 83.6101248 12.7375698L83.4992152 12.7375698C83.3377465 12.7097373 83.1748096 12.6912217 83.0112129 12.682115 82.9019311 12.6892214 82.7965776 12.7256163 82.7062115 12.7874791 82.5776339 12.8928235 82.4767388 13.0279847 82.4123011 13.1812082 82.0864543 14.1770934 81.8816474 15.2085754 81.8022982 16.2534043 81.7634799 16.5528602 81.6969341 16.9521348 81.59157 17.462319 81.4862059 17.9725031 81.4196601 18.3662322 81.3863872 18.6656882 81.3025085 19.0732709 81.3821745 19.4974919 81.6082064 19.8468755 81.8370755 20.1514869 82.1787822 20.3513153 82.5564835 20.4014235 82.8111038 20.4233176 83.0594895 20.3147793 83.2163957 20.1130585 83.3009442 20.0170511 83.3701545 19.9085592 83.4215785 19.7914207L83.6101248 19.3976916C83.6655796 19.286782 83.7099434 19.2368726 83.7543073 19.2424181 84.0101528 19.2932783 84.2398853 19.4326887 84.4031285 19.6361472 84.6083112 19.8690574 84.6970389 20.0409673 84.685948 20.1574224 84.638485 20.3762103 84.5560965 20.5859266 84.4419468 20.7785161 84.3133667 21.0100279 84.1609639 21.2274807 83.9872174 21.4273373 83.8005665 21.6284273 83.5494622 21.757903 83.277396 21.793339 83.0048564 21.8567036 82.7233072 21.8717195 82.4455739 21.8377029 81.6375461 21.7810934 80.8925729 21.3807418 80.3994711 20.7381188 79.9063694 20.0954959 79.7124729 19.2722884 79.8669256 18.4771418 79.9001985 18.1887769 79.9833807 17.7950478 80.0887448 17.2682271 80.194109 16.7414065 80.2717457 16.3532229 80.310564 16.0648579 80.5712016 13.9963938 80.8928395 12.6876605 81.2643866 12.1386579 81.8026205 11.3890169 82.738989 11.0367848 83.6378522 11.2458356L83.6711251 11.2901994zM88.5899661 12.0832031C88.9116039 12.1275669 89.0613319 12.2828404 89.028059 12.5545689 88.9997396 12.8477972 88.9997396 13.143072 89.028059 13.4363003 89.0524731 13.6982187 89.0524731 13.9618401 89.028059 14.2237585 88.9947861 14.6008511 88.889422 15.4104913 88.7286031 16.6859517 88.6466176 17.2271691 88.537418 17.7639124 88.4014197 18.294141 88.2239644 19.0427808 88.1130548 19.5917834 88.0686909 19.9577851 88.0686909 20.1019676 88.0187816 20.4735147 87.9688723 21.0668811 87.918963 21.6602475 87.8801446 22.0539766 87.8635082 22.1759772 87.8637166 22.2575814 87.8007217 22.325422 87.7193257 22.3312506 87.5188505 22.3434682 87.3176345 22.3304264 87.1204138 22.2924323 86.6435025 22.2258865 86.4105923 22.1094314 86.4216833 21.9042486 86.4494107 21.1389724 86.510411 20.3459687 86.6102296 19.5474195 86.6545935 19.2202362 86.7599576 18.6989611 86.9207765 17.9780486 87.0815954 17.2571362 87.192505 16.735861 87.2313234 16.4086777L87.5252339 13.9742119C87.5491902 13.7048635 87.5491902 13.4339202 87.5252339 13.1645718 87.5065248 12.8352099 87.5176611 12.5048307 87.5585067 12.1774763 87.5585067 12.105385 87.6971437 12.0499302 87.9577813 12.0277483 88.169761 12.0052161 88.3835319 12.0052161 88.5955115 12.0277483L88.5899661 12.0832031zM96.3980023 13.1146624C96.6069767 13.1496407 96.811518 13.2072842 97.0080051 13.2865723 97.2575517 13.3808455 97.3740068 13.4640277 97.3629158 13.5361189 97.322364 13.8609009 97.2631138 14.1830738 97.1854605 14.5010325 97.0967328 14.8670342 97.0523689 15.1221263 97.030187 15.2829452 97.0080051 15.4437641 96.9913687 15.8374932 96.9691867 16.4364051 96.9470048 17.035317 96.9192774 17.462319 96.89155 17.7007746 96.8471862 18.0335034 96.7806404 18.560324 96.6752763 19.3034184 96.5699122 20.0465128 96.4978209 20.5733334 96.4590026 20.9005167 96.3536384 21.6990659 96.2150014 22.4809786 96.048637 23.2296184 96.0098186 23.4237102 95.760272 23.479165 95.2833607 23.4126193 95.0933688 23.393387 94.9068383 23.3486197 94.7288127 23.2795277 94.3775657 22.9124212 94.1339393 22.4558614 94.0245367 21.9597034 93.9968093 21.8709758 93.9191726 21.6103382 93.7805356 21.1833362 93.6418986 20.7563342 93.5476254 20.4125145 93.4810797 20.1574224 93.3868065 19.7193294 93.242624 18.7710523 93.0596232 17.3070455 93.0309255 16.7260445 92.9169482 16.1524212 92.7213489 15.6045831 92.6548031 15.8430387 92.5217116 16.7691339 92.3165288 18.3773232 92.2555285 18.848689 92.1945282 19.6805111 92.1335279 20.8783348 92.0725277 22.0761585 92.0448003 22.7027978 92.0392548 22.7416162 92.0392548 22.9024351 91.7231624 22.9301625 91.140887 22.8525258 90.9018223 22.8610394 90.6818739 22.7224719 90.586339 22.5031605 90.552195 22.3198879 90.552195 22.1318851 90.586339 21.9486125 90.6307028 21.5659743 90.6695212 20.9559715 90.7083395 20.118604 90.7471579 19.2812365 90.7804308 18.6767791 90.8247946 18.305232 90.9578861 17.2626817 91.1353415 16.2090404 91.3516152 15.1664901 91.4645345 14.602093 91.6164758 14.0462103 91.8063446 13.502846 92.0059819 12.948298 92.1889828 12.682115 92.3608926 12.7098424 92.4274384 12.7098424 92.5771664 12.7098424 92.8045311 12.7819336L93.2481695 12.8595703C93.3424426 12.8595703 93.4866251 13.1701172 93.6862624 13.7468472 93.8679024 14.2424662 94.0070413 14.7526421 94.1021734 15.2718543L94.235265 16.1757675C94.2962652 16.6526788 94.3517201 17.0075896 94.3849929 17.2460452 94.3849929 17.3181365 94.4459932 17.6453198 94.5236299 18.2386862 94.6012667 18.8320526 94.6678124 19.275691 94.7232672 19.5862379 94.769962 19.7924136 94.8273427 19.9960226 94.8951771 20.1962407 94.9728138 20.4346964 95.0338141 20.6066063 95.0615415 20.7119704 95.1003599 20.5400605 95.1613602 20.0409673 95.2556333 19.2091452 95.3499065 18.3773232 95.3998158 17.8505026 95.4275432 17.6231379 95.4552706 17.3957732 95.4719071 16.9743167 95.482998 16.3476774 95.494089 15.7210382 95.482998 15.3217636 95.5218164 15.1332172 95.5606347 14.9446709 95.6049986 14.7228517 95.6881808 14.3734864 95.7658145 14.0851472 95.8269143 13.7926087 95.8711816 13.4973006 95.9044545 13.225572 96.0819099 13.1202079 96.4257297 13.1645718L96.3980023 13.1146624zM101.8603 22.9800718C102.664395 23.1519817 103.058124 23.3183461 103.035942 23.490256 102.947214 24.1612591 102.797486 24.4773515 102.570122 24.4440786 102.542394 24.4440786 102.475849 24.4440786 102.364939 24.4440786L101.976755 24.4440786C101.836778 24.4376253 101.697622 24.4190712 101.560844 24.3886238 100.81775 24.2388958 100.191111 24.1113498 99.6698356 23.9782583 99.3604474 23.9430565 99.0629137 23.8388249 98.7991952 23.6732568 98.7021625 23.5054706 98.6595388 23.3117265 98.6771947 23.1187088 98.6771947 22.3811599 98.727104 21.7434297 98.7936497 21.2166091 98.8380136 20.8561529 98.9544687 20.24615 99.131924 19.3976916 99.3093794 18.5492331 99.409198 18.1000492 99.4147435 18.0612308 99.420289 18.0224125 99.4147435 17.6841382 99.4147435 17.2349543 99.4147435 16.7857704 99.4147435 16.5362237 99.4147435 16.4807689 99.4424709 16.2644952 99.5256531 15.8374932 99.6476537 15.199763 99.7696543 14.5620328 99.8417455 14.2126675 99.8583819 14.1572127 99.9471096 13.8910297 100.224384 13.7967565 100.668022 13.8577568 100.81775 13.8577568 101.061751 13.929848 101.39448 14.0019393 101.727209 14.0740305 101.949028 14.1239398 102.120938 14.1461218 102.362001 14.175251 102.604579 14.1900649 102.847396 14.1904856 103.090149 14.1868969 103.332865 14.1998665 103.573854 14.229304 103.668127 14.229304 103.7624 14.3845774 103.851128 14.645215 103.931254 14.8438881 103.965379 15.0581186 103.950946 15.2718543 103.950946 15.3550365 103.845582 15.4326732 103.657036 15.5047644 103.427374 15.5876225 103.185764 15.6325732 102.941669 15.6378559 102.653136 15.6593021 102.363141 15.6500074 102.076574 15.6101285L101.832573 15.5768557 101.544208 15.5380373 101.305752 15.5047644 101.156024 15.5047644C101.079322 15.6936423 101.025337 15.8909663 100.995205 16.0925853 100.923114 16.4308596 100.87875 16.7025882 100.851023 16.9022254 100.835673 17.1293311 100.835673 17.3572139 100.851023 17.5843195 100.865019 17.787413 100.865019 17.9912289 100.851023 18.1943223 101.236305 18.2900906 101.62706 18.3623155 102.021119 18.4105961L102.575667 18.4882328 103.102488 18.5658695C103.17889 18.5769433 103.24825 18.6165778 103.29658 18.6767791 103.351648 18.7241314 103.383921 18.7927115 103.385307 18.8653255 103.348523 19.1024125 103.275583 19.3324531 103.169034 19.5474195 103.058124 19.7914207 102.958305 19.9078757 102.875123 19.9134212 102.477096 19.9177721 102.079116 19.9011125 101.682845 19.8635119 101.308958 19.8123205 100.938564 19.7382416 100.573749 19.6416927 100.546022 19.7692387 100.485021 20.0520582 100.385203 20.5012421 100.285384 20.950426 100.218838 21.2665184 100.18002 21.4495193 100.153017 21.5796419 100.132657 21.7110551 100.11902 21.8432484 100.11902 21.9874308 100.085747 22.1038859 100.074656 22.2037046 100.063565 22.3035232 100.046928 22.3867054 100.041383 22.4587967 100.035837 22.5308879 100.041383 22.5752518 100.041383 22.5863427 100.587192 22.7637437 101.142634 22.9100101 101.705027 23.0244357L101.8603 22.9800718zM102.414848 13.1146624C102.198981 13.0676331 101.998613 12.9664952 101.832573 12.820752 101.605208 12.6432966 101.499844 12.4824777 101.516481 12.3549316 101.683828 11.9318028 101.945571 11.5524658 102.281757 11.2458356 102.764214 10.6912876 103.085851 10.4417409 103.263307 10.4639229 103.645659 10.5979008 103.907319 10.9519111 103.923219 11.3567452 103.757587 11.7213994 103.528515 12.0537425 103.24667 12.3382952 102.808577 12.8595703 102.542394 13.1146624 102.431485 13.098026L102.414848 13.1146624zM107.317053 14.7173062C107.578056 14.7432349 107.833943 14.8067397 108.076784 14.9058526 108.195826 14.9496302 108.301089 15.024271 108.381785 15.1221263 108.419712 15.2136684 108.440393 15.3114321 108.442785 15.4104913L108.542604 16.1480401 108.653514 16.9798622C108.692332 17.2294088 108.720059 17.451228 108.736696 17.6564108 108.819878 18.848689 108.90306 19.702693 108.975151 20.2073317 109.027153 20.6313754 109.133386 21.0469874 109.291244 21.4439738 109.372908 21.3489611 109.436778 21.2400066 109.47979 21.1223359L109.928974 20.2073317 110.483522 19.0982356C110.57225 18.9392652 110.738614 18.6120819 110.982615 18.1166856 111.221071 17.6286834 111.404072 17.2737726 111.537163 17.0574989 111.795391 16.6347172 112.080653 16.229053 112.391167 15.8430387 112.549827 15.7218744 112.746341 15.6609551 112.945715 15.6711288 113.196561 15.6476278 113.449055 15.6476278 113.699901 15.6711288 114.171266 15.7376746 114.398631 15.8984935 114.365358 16.1591311 114.365358 16.1591311 114.315449 16.5584057 114.226721 17.2682271 114.137994 17.9780486 114.054811 18.7266885 113.966084 19.541874 113.877356 20.3570596 113.81081 20.9060622 113.771992 21.2055181 113.741182 21.4493965 113.691117 21.6904535 113.622264 21.9264306 113.557665 22.1631291 113.50949 22.4040063 113.478081 22.647343 113.428172 23.063254 113.350535 23.5457108 113.267353 24.1002588 113.184171 24.6548068 113.106534 25.1428091 113.051079 25.5698111 113.051079 25.7250845 112.757169 25.7472665 112.213712 25.6696297 111.764528 25.6086295 111.564891 25.464447 111.592618 25.2259913 111.592618 25.2259913 111.592618 25.0208085 111.664709 24.6714433 111.736801 24.322078 111.770074 23.9449854 111.836619 23.5179834 111.903165 23.0909814 111.947529 22.7471616 111.980802 22.4865241 112.013453 22.2338341 112.063481 21.9836948 112.13053 21.7378842 112.198594 21.4923145 112.248636 21.2421026 112.280258 20.9892444 112.280258 20.9337896 112.330167 20.6343337 112.396713 20.1019676 112.463259 19.5696015 112.518713 19.1204175 112.568623 18.7322339L112.679532 17.8449571C112.47983 18.1865677 112.305599 18.542444 112.158257 18.9096893 111.869892 19.552965 111.703528 19.9189667 111.648073 20.0187854 111.592618 20.118604 111.50389 20.2627865 111.293162 20.6398791L110.738614 21.6269746 110.184066 22.5752518C110.017609 22.8625853 109.832356 23.1386115 109.629518 23.4015283 109.468699 23.5956201 109.341153 23.6954388 109.274607 23.7009842 109.068098 23.6900952 108.862496 23.6660157 108.659059 23.628893 108.553695 23.628893 108.431694 23.4847105 108.315239 23.2351639 108.193573 22.9877599 108.114816 22.7214866 108.082329 22.4477057 108.035003 22.2097281 107.968233 21.9760341 107.882692 21.7489752 107.797042 21.51156 107.726656 21.2689127 107.671964 21.0225173 107.58794 20.4989469 107.530562 19.9714467 107.500054 19.4420554 107.439053 18.710052 107.405781 18.2220497 107.378053 18.0002305 107.356228 17.7528263 107.298311 17.5099482 107.206143 17.2793181 107.161779 17.6231379 107.106325 18.0945037 107.012051 18.6934156 106.917778 19.2923274 106.862324 19.7636933 106.81796 20.118604 106.773596 20.4735147 106.712596 21.1666998 106.618322 22.3756145 106.524049 23.5845292 106.451958 24.3276235 106.41314 24.6270794 106.402909 24.6860514 106.38617 24.743707 106.36323 24.7989893 106.36323 24.8378077 106.285594 24.8599896 106.174684 24.887717 106.024376 24.9154455 105.870263 24.9154455 105.719955 24.887717 105.499286 24.8632849 105.286978 24.7893564 105.098861 24.6714433 104.932496 24.5494427 104.85486 24.4329876 104.865951 24.322078 104.91586 23.9228035 105.004588 23.1464362 105.109952 21.9818854 105.215316 20.8173345 105.298498 20.0465128 105.348407 19.6472382 105.420499 19.0926901 105.531408 18.4494144 105.670045 17.7617749 105.808682 17.0741353 105.914046 16.6138605 105.980592 16.4031322 106.252321 15.5713102 106.396503 15.1110353 106.402049 15.0389441 106.407677 14.9507646 106.434295 14.8652067 106.479685 14.7893975 106.54681 14.7147881 106.640222 14.6690757 106.740323 14.6618514 106.955596 14.6324288 107.173871 14.6324288 107.389144 14.6618514L107.317053 14.7173062zM121.374845 25.2869916C121.412612 25.7066328 121.399578 26.1292988 121.336027 26.5458156 121.312073 26.696447 121.200949 26.8184663 121.053207 26.8563625 120.811454 26.9031995 120.562958 26.9031995 120.321204 26.8563625 120.20423 26.8346704 120.091746 26.7934264 119.988475 26.7343619 119.87202 26.6622707 119.827656 26.5957249 119.833202 26.5402701 119.89975 26.1148437 119.918351 25.6832935 119.888657 25.2537187 119.888657 25.2093549 119.827656 24.9542628 119.733383 24.5050789 119.63911 24.055895 119.561473 23.6843478 119.517109 23.3959828L119.151108 23.3959828 118.762924 23.3959828 118.419104 23.3959828C118.324993 23.4038013 118.230396 23.4038013 118.136285 23.3959828 117.891786 23.3504307 117.650866 23.2874207 117.415372 23.2074365 117.292852 23.4760051 117.192694 23.7542224 117.115917 24.0392585 117.030024 24.3742109 116.924477 24.7038135 116.799824 25.026354 116.701604 25.3501046 116.57735 25.6653771 116.428277 25.9690857 116.378947 26.0692946 116.296735 26.1495493 116.195367 26.1964504 116.081585 26.2158981 115.965329 26.2158981 115.851547 26.1964504 115.241544 26.1132682 114.942088 25.9857221 114.96427 25.8138122 115.066852 25.4160541 115.194657 25.0252314 115.346908 24.6437159 115.579818 23.9782583 115.71291 23.6067111 115.718455 23.5346198 115.724001 23.4625286 115.973548 22.8580712 116.46155 21.7323388 116.744949 21.1260846 116.993062 20.5039528 117.204644 19.8690574 117.421612 19.2762484 117.684912 18.7014398 117.992102 18.1499585 118.232644 17.5939875 118.529981 17.0643553 118.879379 16.5694966 119.074163 16.4755224 119.294984 16.4501181 119.506019 16.4974054 119.751122 16.5041292 119.987087 16.5918851 120.177022 16.746952 120.329208 17.3386702 120.447702 17.9385459 120.531932 18.5436876 120.73157 19.6860565 120.859116 20.4014235 120.881298 20.684243 120.90348 20.9670625 120.881298 21.238791 120.881298 21.7046114 120.881298 22.1704317 120.881298 22.5197969 120.909025 22.7527071 120.909025 22.9024351 121.008844 23.3072551 121.125299 23.9006215 121.241754 24.4939879 121.313845 25.0097176 121.358209 25.3313554L121.374845 25.2869916zM118.225013 21.8709758C118.319286 21.8709758 118.524468 21.8709758 118.840561 21.9153396 119.156653 21.9597034 119.3452 21.9153396 119.395109 21.9486125 119.395109 21.5881563 119.395109 21.2942458 119.395109 21.0724266 119.368816 20.7598738 119.326243 20.4489047 119.267563 20.1407859L119.212108 19.6860565C119.201768 19.51983 119.177655 19.3547479 119.140017 19.1925088 118.956118 19.4943061 118.79128 19.8073128 118.646469 20.129695 118.500161 20.4090015 118.388428 20.7050935 118.31374 21.0114263 118.233927 21.2880199 118.130014 21.5570819 118.003193 21.815521L118.213922 21.8876122 118.225013 21.8709758z"/>
        </g>
      </g>
    </g>
  </g>
</svg>
